<?xml version="1.0" encoding="UTF-8" standalone="no"?>
<svg
   xmlns:dc="http://purl.org/dc/elements/1.1/"
   xmlns:cc="http://creativecommons.org/ns#"
   xmlns:rdf="http://www.w3.org/1999/02/22-rdf-syntax-ns#"
   xmlns:svg="http://www.w3.org/2000/svg"
   xmlns="http://www.w3.org/2000/svg"
   id="svg8"
   version="1.1"
   viewBox="0 0 210 297"
   height="297mm"
   width="210mm">
  <defs
     id="defs2" />
  <metadata
     id="metadata5">
    <rdf:RDF>
      <cc:Work
         rdf:about="">
        <dc:format>image/svg+xml</dc:format>
        <dc:type
           rdf:resource="http://purl.org/dc/dcmitype/StillImage" />
        <dc:title></dc:title>
      </cc:Work>
    </rdf:RDF>
  </metadata>
  <g
     id="layer1">
    <g
       id="g1123">
      <path
         id="path1094"
         style="fill:#ffec14;fill-opacity:1;stroke-width:0.343102"
         d="m 92.878711,6.8144202 c -0.01432,0 -0.0465,0.0216 -0.08756,0.0542 -0.03721,0.02955 -0.09544,0.08507 -0.152787,0.139387 -0.04166,0.03946 -0.07389,0.06746 -0.125388,0.119133 -0.200598,0.201251 -0.473321,0.49211 -0.798488,0.851203 -5.3e-5,5.9e-5 5.5e-5,3.05e-4 0,3.05e-4 -0.07674,0.08474 -0.165473,0.184941 -0.247796,0.276984 -0.266555,0.298023 -0.552122,0.620949 -0.865796,0.982845 -0.02897,0.03342 -0.06065,0.07096 -0.08995,0.104836 -0.178295,0.206223 -0.359949,0.41688 -0.548307,0.637956 -5.1e-5,5.9e-5 5e-5,3.05e-4 0,3.05e-4 -0.219243,0.2573248 -0.44419,0.5233938 -0.672504,0.7958058 -9.3e-5,1.1e-4 -1.52e-4,1.53e-4 -3.05e-4,3.05e-4 -0.05622,0.06708 -0.09811,0.118706 -0.15249,0.183763 -0.26706,0.319495 -0.525501,0.629152 -0.749642,0.902132 -4.4e-5,5.3e-5 4.3e-5,3.05e-4 0,3.05e-4 -0.674543,0.82153 -1.160939,1.441354 -1.494519,1.914164 -4.5e-5,6.1e-5 4.2e-5,3.05e-4 0,3.05e-4 -0.06666,0.09449 -0.127215,0.183092 -0.181976,0.266263 -0.109607,0.166468 -0.196119,0.311154 -0.261497,0.437515 -0.130756,0.252719 -0.177639,0.432331 -0.159043,0.566475 0.0093,0.06707 0.03501,0.122765 0.07476,0.170658 0.180115,0.217025 0.315162,0.344706 0.682928,0.285323 0.122589,-0.01979 0.271078,-0.06039 0.455684,-0.125387 0.184604,-0.065 0.405298,-0.154465 0.672503,-0.27192 0.534409,-0.234913 1.254666,-0.581897 2.242972,-1.07011 0.494153,-0.244108 1.055267,-0.523668 1.69377,-0.841972 0.796102,-0.396872 1.537915,-0.789006 2.154217,-1.134738 1.02717,-0.576223 1.705683,-1.023055 1.705683,-1.145462 0,-0.318164 -1.297391,-2.1370248 -2.221826,-3.2427928 -0.168082,-0.201037 -0.324096,-0.37854 -0.45747,-0.51912 -0.133372,-0.140582 -0.244269,-0.24432 -0.322849,-0.297833 -0.03929,-0.02676 -0.0705,-0.0408 -0.09233,-0.0408 z m 25.692159,9.2515508 c -0.0546,-3.05e-4 -0.10718,9.15e-4 -0.16112,0.0012 -0.0827,4.58e-4 -0.16593,4.58e-4 -0.24661,0.0021 -0.0584,0.0012 -0.11395,0.0035 -0.17095,0.0054 -0.0787,0.0025 -0.15748,0.0052 -0.23291,0.0089 -0.0559,0.0028 -0.10891,0.0066 -0.16261,0.01013 -0.0665,0.0043 -0.13185,0.0089 -0.19449,0.0143 -0.0542,0.0047 -0.10546,0.01 -0.15636,0.01549 -0.0624,0.0067 -0.12213,0.01404 -0.179,0.02204 -0.0409,0.0057 -0.0811,0.01176 -0.11883,0.01817 -0.0554,0.0094 -0.10513,0.01984 -0.15309,0.03068 -0.0379,0.0086 -0.078,0.01674 -0.11079,0.02621 -0.0146,0.0042 -0.0291,0.0084 -0.0426,0.01281 -0.0142,0.0046 -0.0281,0.0092 -0.0411,0.014 -0.0161,0.006 -0.0308,0.01217 -0.045,0.01846 -0.0112,0.005 -0.0228,0.01 -0.0328,0.01519 -0.0161,0.0084 -0.0296,0.01705 -0.0423,0.02591 -0.005,0.0034 -0.0108,0.0066 -0.0152,0.01012 -0.0163,0.01302 -0.0294,0.02641 -0.0381,0.04051 -7e-5,1.07e-4 -3e-4,1.53e-4 -3e-4,3.05e-4 -0.0119,0.01933 -0.0284,0.0679 -0.0491,0.142959 -0.14591,0.526697 -0.4963,2.349627 -0.84227,4.402849 -0.11619,0.689506 -0.21228,1.26424 -0.30498,1.809924 -0.0188,0.110546 -0.044,0.262102 -0.0619,0.36663 -2e-5,8.2e-5 10e-6,1.52e-4 0,3.05e-4 -0.008,0.0466 -0.0148,0.08237 -0.0226,0.127769 -0.17535,1.012315 -0.31479,1.735866 -0.44258,2.130688 -0.0572,0.176817 -0.11224,0.289716 -0.16768,0.337146 -9e-5,7.5e-5 -1.5e-4,1.53e-4 -3.1e-4,3.05e-4 -0.0165,0.01414 -0.0331,0.02138 -0.0497,0.02383 -0.002,3.05e-4 -0.004,0.0014 -0.006,0.0015 -9e-5,6e-6 -1.5e-4,-6e-6 -3e-4,0 -0.0187,0.0012 -0.0373,-0.0051 -0.0563,-0.01876 -0.0759,-0.05429 -0.15507,-0.227076 -0.24333,-0.522397 -2e-5,-8.4e-5 3e-5,-1.52e-4 0,-3.05e-4 -0.0442,-0.147752 -0.0906,-0.325927 -0.13998,-0.535502 -0.14815,-0.628725 -0.32301,-1.537825 -0.54384,-2.741243 -2e-5,-8.3e-5 1e-5,-1.53e-4 0,-3.05e-4 -0.14721,-0.802224 -0.315,-1.735146 -0.5087,-2.802896 l -0.2335,-1.286633 h -3.56385 c -1.35437,0 -2.21037,0.01499 -2.75822,0.07565 -0.0908,0.01005 -0.17097,0.02185 -0.24572,0.03455 -0.11849,0.02013 -0.22006,0.04321 -0.30378,0.07088 -0.0455,0.01505 -0.0865,0.03132 -0.12331,0.04885 -0.14709,0.07008 -0.22908,0.160736 -0.28145,0.277579 -5e-5,1.25e-4 -3e-4,1.52e-4 -3e-4,3.05e-4 -0.013,0.02913 -0.024,0.05986 -0.0339,0.09233 -0.0457,0.149975 -0.1952,0.93449 -0.39076,2.020194 -0.0197,0.109606 -0.0319,0.171142 -0.0527,0.287705 -2e-5,1.16e-4 2e-5,1.53e-4 0,3.05e-4 -0.0169,0.09457 -0.0391,0.223691 -0.0566,0.322552 -0.21814,1.230032 -0.47997,2.750338 -0.75202,4.382596 l -1.06892,6.413213 1.0579,0.963486 1.05789,0.963783 -3e-4,3.05e-4 -1.4969,1.588635 c -0.6841,0.72605 -1.06794,1.182935 -1.3325,1.77627 -4e-5,8.2e-5 3e-5,1.52e-4 0,3.05e-4 -0.0992,0.222432 -0.18161,0.463972 -0.25673,0.746069 -3e-5,9.6e-5 2e-5,1.52e-4 0,3.05e-4 -0.12523,0.470289 -0.23049,1.053411 -0.35949,1.847747 -0.0621,0.382491 -0.11609,0.752465 -0.16083,1.094234 -1e-5,9.5e-5 2e-5,1.53e-4 0,3.05e-4 -0.002,0.01862 -0.004,0.03486 -0.007,0.05331 -0.0413,0.320055 -0.0749,0.616349 -0.098,0.870265 -0.0122,0.134314 -0.0217,0.257274 -0.0283,0.367226 -0.0197,0.329852 -0.0132,0.541057 0.0244,0.578687 0.008,0.0074 0.0193,0.01567 0.0357,0.02442 1e-4,5e-5 1.6e-4,-5.1e-5 3.1e-4,0 0.0165,0.0088 0.0373,0.01827 0.0623,0.02829 1e-4,4e-5 1.5e-4,-4.1e-5 3e-4,0 0.0127,0.0051 0.0353,0.01159 0.05,0.01697 0.0893,0.03259 0.21383,0.07009 0.37021,0.111986 0.0222,0.0059 0.0383,0.01118 0.0617,0.01727 1e-4,2.7e-5 1.5e-4,-2.8e-5 3e-4,0 0.10764,0.02809 0.22746,0.0579 0.3574,0.08875 0.26015,0.06176 0.56047,0.128082 0.88426,0.195973 0.32368,0.06788 0.67046,0.137171 1.02336,0.20461 0.35298,0.06744 0.71183,0.133157 1.05968,0.193592 0.52151,0.09061 1.01804,0.169662 1.43138,0.226054 9e-5,1.2e-5 1.5e-4,-1.2e-5 3.1e-4,0 0.27546,0.03758 0.51391,0.06504 0.69841,0.07922 9e-5,6e-6 1.5e-4,-6e-6 3.1e-4,0 0.0923,0.0071 0.17104,0.01072 0.23409,0.01072 0.12435,0 0.22895,-0.0086 0.32136,-0.03812 0.0588,-0.01883 0.11253,-0.0483 0.16202,-0.08935 0.0155,-0.01284 0.0314,-0.02379 0.0462,-0.03931 0.0271,-0.02856 0.0533,-0.06184 0.0783,-0.100667 5e-5,-6.6e-5 -4e-5,-3.05e-4 0,-3.05e-4 0.009,-0.01366 0.017,-0.032 0.0256,-0.04706 0.059,-0.103422 0.11402,-0.240497 0.16739,-0.422028 0.005,-0.01788 0.0105,-0.03218 0.0158,-0.05093 2e-5,-8.5e-5 -3e-5,-1.52e-4 0,-3.05e-4 0.11039,-0.394981 0.21818,-0.985688 0.3571,-1.867405 1e-5,-8.5e-5 -2e-5,-1.52e-4 0,-3.05e-4 0.008,-0.05383 0.0193,-0.127741 0.028,-0.183762 0.0484,-0.311029 0.0984,-0.637117 0.15576,-1.020075 0.11336,-0.757271 0.20429,-1.389688 0.29039,-1.98356 0.0148,-0.101747 0.0356,-0.242773 0.0497,-0.339825 1e-5,-1.07e-4 -2e-5,-1.53e-4 0,-3.05e-4 0.14483,-0.995111 0.25816,-1.744184 0.36752,-2.263223 3e-5,-1.03e-4 -2e-5,-1.53e-4 0,-3.05e-4 0.10929,-0.518614 0.21479,-0.807386 0.3437,-0.882476 1.2e-4,-6.7e-5 1.5e-4,-1.53e-4 3.1e-4,-3.05e-4 0.0106,-0.0062 0.0215,-0.01073 0.0325,-0.014 0.0223,-0.0066 0.0452,-0.0073 0.0691,-0.0021 0.34462,0.07558 0.86743,1.378477 1.95794,3.68299 l 2.10984,4.458542 1.35127,-3.418217 1.35126,-3.418215 0.43156,2.562247 c 0.11866,0.70459 0.29384,1.769113 0.4804,2.916965 2e-5,1.13e-4 -2e-5,1.53e-4 0,3.05e-4 0.18655,1.147767 0.38453,2.378648 0.54891,3.415536 1e-5,8.7e-5 -2e-5,1.53e-4 0,3.05e-4 l 0.59774,3.770551 3.25948,0.567072 c 0.42296,0.07359 0.80833,0.138874 1.15826,0.195676 0.69988,0.113604 1.25864,0.193879 1.69705,0.241838 0.43841,0.04796 0.75639,0.06363 0.97421,0.04795 0.0545,-0.0039 0.10248,-0.0098 0.14474,-0.01757 0.10566,-0.01954 0.17442,-0.05144 0.21087,-0.09501 0.0365,-0.04357 0.0406,-0.09879 0.0179,-0.165893 -0.0236,-0.06947 -0.0462,-0.200117 -0.0637,-0.354717 -1e-5,-9.3e-5 1e-5,-1.52e-4 0,-3.05e-4 -0.0175,-0.154536 -0.0301,-0.332956 -0.0331,-0.497976 -3.1e-4,-0.02097 -0.003,-0.04325 -0.009,-0.06671 -2e-5,-8.5e-5 2e-5,-1.52e-4 0,-3.05e-4 -0.0164,-0.07032 -0.0552,-0.151396 -0.11288,-0.239754 -0.0385,-0.05898 -0.0855,-0.121226 -0.13998,-0.185847 -0.0545,-0.06462 -0.11668,-0.131502 -0.18525,-0.199845 -0.13714,-0.136686 -0.30033,-0.278981 -0.48219,-0.41905 -0.18186,-0.14007 -0.3824,-0.277838 -0.59358,-0.405945 -0.31605,-0.191713 -0.61599,-0.401477 -0.90005,-0.627234 -0.14203,-0.112877 -0.28004,-0.229799 -0.41398,-0.350548 -0.1339,-0.1207 -0.2638,-0.245343 -0.38957,-0.373481 -0.063,-0.06414 -0.12494,-0.128854 -0.18585,-0.194782 -5e-5,-5.5e-5 5e-5,-3.05e-4 0,-3.05e-4 -0.12166,-0.131695 -0.23947,-0.266859 -0.35293,-0.40535 -5e-5,-5.9e-5 5e-5,-3.05e-4 0,-3.05e-4 -0.0567,-0.06921 -0.11244,-0.139138 -0.16708,-0.209971 -5e-5,-6.2e-5 5e-5,-3.05e-4 0,-3.05e-4 -0.0546,-0.07083 -0.10826,-0.142339 -0.16083,-0.214736 -5e-5,-6.6e-5 5e-5,-3.05e-4 0,-3.05e-4 -0.15779,-0.217323 -0.30653,-0.441452 -0.44556,-0.671909 -4e-5,-7.5e-5 5e-5,-1.52e-4 0,-3.05e-4 -0.27812,-0.461065 -0.51854,-0.946945 -0.72045,-1.451931 -0.33653,-0.841662 -0.56602,-1.736294 -0.68531,-2.657255 -0.0477,-0.368376 -0.0778,-0.740891 -0.0899,-1.115976 -0.0122,-0.375093 -0.007,-0.75278 0.0173,-1.131166 0.0714,-1.135064 0.30576,-2.277191 0.70884,-3.380391 3e-5,-8.6e-5 -3e-5,-1.53e-4 0,-3.05e-4 0.0672,-0.18388 0.13903,-0.366511 0.21563,-0.548011 0.15316,-0.36292 0.32532,-0.720756 0.51644,-1.071598 4e-5,-7.6e-5 -4e-5,-1.53e-4 0,-3.05e-4 0.0956,-0.175458 0.19595,-0.349111 0.30111,-0.520907 0.15773,-0.257696 0.32628,-0.510918 0.50572,-0.759174 0.0598,-0.08275 0.12063,-0.165008 0.18286,-0.246605 l 0.81457,-1.067727 -1.00637,-6.480523 c -0.1384,-0.890964 -0.27519,-1.753701 -0.40386,-2.550036 -2e-5,-1.08e-4 2e-5,-1.52e-4 0,-3.05e-4 -0.3218,-1.991536 -0.59315,-3.568583 -0.7139,-4.141055 -0.0242,-0.11457 -0.0423,-0.18881 -0.0536,-0.218311 -0.006,-0.01606 -0.0181,-0.03177 -0.0337,-0.04706 -0.006,-0.0054 -0.0139,-0.01075 -0.0206,-0.01608 -0.0125,-0.01 -0.0253,-0.01984 -0.0417,-0.02949 -0.009,-0.0054 -0.0203,-0.01078 -0.0307,-0.01608 -0.0176,-0.009 -0.0361,-0.01786 -0.0569,-0.02651 -0.0134,-0.0055 -0.028,-0.01096 -0.0426,-0.01638 -0.0174,-0.0065 -0.0359,-0.01281 -0.0551,-0.01906 -0.065,-0.02121 -0.13879,-0.04126 -0.22189,-0.06016 -0.0126,-0.0029 -0.026,-0.0055 -0.039,-0.0083 -0.0566,-0.01226 -0.12129,-0.02332 -0.18465,-0.03455 -0.0715,-0.01266 -0.14534,-0.02475 -0.22427,-0.03604 -0.0485,-0.0069 -0.098,-0.01354 -0.14892,-0.01995 -0.0876,-0.01103 -0.17871,-0.02124 -0.27251,-0.03068 -0.0535,-0.0054 -0.10661,-0.01092 -0.16173,-0.01579 -0.10266,-0.009 -0.20859,-0.01664 -0.3157,-0.02383 -0.0502,-0.0034 -0.0995,-0.0072 -0.1504,-0.01013 -0.11243,-0.0065 -0.22677,-0.01162 -0.34132,-0.01608 -0.0495,-0.0019 -0.0984,-0.0047 -0.14802,-0.0063 -0.16327,-0.005 -0.327,-0.0079 -0.48844,-0.0086 z m -47.681978,0.25554 -1.610971,2.242077 c -0.885898,1.233293 -2.381557,3.301608 -3.323805,4.596142 l -1.713128,2.353466 -3.05e-4,3.05e-4 -0.276685,-4.449011 c -0.0357,-0.573982 -0.07154,-1.118456 -0.106624,-1.627055 -0.0023,-0.03345 -0.0048,-0.07385 -0.0072,-0.106922 -0.0026,-0.03678 -0.0046,-0.06198 -0.0071,-0.09828 -0.09003,-1.28595 -0.17145,-2.275837 -0.215332,-2.591137 -0.009,-0.06484 -0.0167,-0.101583 -0.02234,-0.107219 -0.01127,-0.01127 -0.147083,0.01446 -0.382715,0.07088 -0.471302,0.112895 -1.34172,0.347914 -2.413034,0.651358 -0.535735,0.151739 -1.121904,0.320715 -1.73338,0.50006 l -1.008458,0.295746 -3.438469,1.008758 -0.109305,1.300929 v 3.05e-4 l -0.0086,0.100668 -0.100667,1.200262 0.213248,-0.03425 1.121932,-0.179295 1.334883,-0.213545 v 3.05e-4 l 0.349058,4.554445 c 0.147667,1.926897 0.240574,3.050661 0.397011,3.848583 0.0447,0.227978 0.09467,0.429419 0.15249,0.615321 0.02891,0.09295 0.0597,0.182038 0.09292,0.268644 0.132894,0.346424 0.303036,0.653146 0.532524,1.009352 0.114744,0.178102 0.244486,0.36862 0.391649,0.582559 0.275796,0.400938 0.522133,0.818101 0.73892,1.248511 0.108395,0.215204 0.20934,0.433776 0.302896,0.655231 0.140333,0.332179 0.264013,0.670868 0.3708,1.015009 0.142383,0.458857 0.254803,0.927296 0.337146,1.402193 0.04117,0.237449 0.07489,0.476541 0.100965,0.716881 0.03911,0.360511 0.06113,0.723658 0.06612,1.088575 2e-6,10e-5 -10e-7,1.53e-4 0,3.05e-4 0.0066,0.486458 -0.01707,0.97567 -0.07148,1.464738 -10e-6,9.9e-5 1.1e-5,1.52e-4 0,3.05e-4 -0.0272,0.244485 -0.06199,0.488943 -0.104539,0.732964 -1.7e-5,9.6e-5 1.8e-5,1.52e-4 0,3.05e-4 -0.08512,0.488138 -0.20102,0.974601 -0.347866,1.456397 -2.9e-5,9.2e-5 2.7e-5,1.53e-4 0,3.05e-4 -0.07342,0.240856 -0.154698,0.480517 -0.243627,0.71867 -3.4e-5,8.7e-5 3.2e-5,1.52e-4 0,3.05e-4 -0.04445,0.119033 -0.09105,0.23769 -0.139385,0.355908 -3.5e-5,8.7e-5 3.5e-5,1.53e-4 0,3.05e-4 -0.04834,0.118219 -0.09877,0.235917 -0.151002,0.353228 -3.6e-5,8.4e-5 3.8e-5,1.52e-4 0,3.05e-4 -0.233596,0.524655 -0.39777,0.966895 -0.506611,1.414702 -2.3e-5,9.3e-5 2.1e-5,1.52e-4 0,3.05e-4 -0.145094,0.597083 -0.191972,1.204138 -0.173338,2.029128 0.0047,0.206281 0.0136,0.42617 0.02591,0.662974 l 0.122707,2.362403 2.28437,-0.219801 c 1.256535,-0.120859 2.632058,-0.314118 3.056648,-0.429474 0.285156,-0.07747 0.465267,-0.138127 0.578687,-0.475338 2.8e-5,-8.1e-5 -2.7e-5,-1.53e-4 0,-3.05e-4 0.05671,-0.168733 0.09674,-0.406566 0.125089,-0.750536 0.0189,-0.229314 0.0324,-0.505766 0.04229,-0.840184 0.0049,-0.167117 0.009,-0.34878 0.01221,-0.546223 2e-6,-8.6e-5 -10e-7,-1.53e-4 0,-3.05e-4 0.0065,-0.395051 0.01011,-0.85365 0.01191,-1.386408 v -3.05e-4 c 0.0018,-0.532818 0.0018,-1.139952 0.0018,-1.832262 v -3.57e-4 -5.622172 l 10.633789,5.319275 h 3.05e-4 c 1.462086,0.73134 2.867897,1.429385 4.157135,2.065166 1.289397,0.635849 2.46216,1.20931 3.458424,1.691387 1.494311,0.723074 2.591241,1.240521 3.08792,1.454014 0.08278,0.03558 0.148672,0.06276 0.197165,0.08101 6.2e-5,2.4e-5 3.05e-4,-2.3e-5 3.05e-4,0 0.04849,0.01825 0.07941,0.0274 0.09173,0.0274 0.01433,0 0.02813,-0.0042 0.0414,-0.0125 0.01327,-0.0083 0.02593,-0.02046 0.03812,-0.03693 0.146227,-0.197603 0.214558,-0.979455 0.196271,-2.243865 -1.1e-5,-7.62e-4 1.1e-5,-0.0014 0,-0.0021 -7.3e-5,-0.005 -1.53e-4,-0.01103 -3.05e-4,-0.01608 -0.0031,-0.206535 -0.0086,-0.424762 -0.01638,-0.656422 l -0.09888,-2.967894 -2.093461,-0.572134 c -9.1e-5,-2.6e-5 -1.52e-4,2.4e-5 -3.05e-4,0 -0.103918,-0.0284 -0.207677,-0.05839 -0.311235,-0.08935 -9e-5,-2.8e-5 -1.52e-4,2.7e-5 -3.05e-4,0 -0.103647,-0.03099 -0.206855,-0.06301 -0.310042,-0.0965 -0.206462,-0.067 -0.411889,-0.139063 -0.615917,-0.215632 -0.203942,-0.07653 -0.406253,-0.157488 -0.60698,-0.24303 -0.200811,-0.08557 -0.399748,-0.175504 -0.596558,-0.269537 -0.196651,-0.09396 -0.390984,-0.19211 -0.582857,-0.293961 -7.6e-5,-4.1e-5 -1.53e-4,4.1e-5 -3.05e-4,0 -0.191874,-0.101854 -0.381057,-0.207697 -0.567371,-0.316892 -7.3e-5,-4.3e-5 -1.52e-4,4.2e-5 -3.05e-4,0 -0.186385,-0.109242 -0.369757,-0.222006 -0.549798,-0.33804 -0.283518,-0.182716 -0.555543,-0.375534 -0.820824,-0.573327 -0.07163,-0.05341 -0.145468,-0.105227 -0.21563,-0.159637 -6.2e-5,-4.7e-5 -3.05e-4,4.7e-5 -3.05e-4,0 -0.164936,-0.12791 -0.325643,-0.258612 -0.481891,-0.391649 -5.8e-5,-4.9e-5 -3.05e-4,4.9e-5 -3.05e-4,0 -0.07372,-0.06277 -0.142783,-0.127983 -0.21444,-0.191803 -0.156747,-0.139608 -0.308238,-0.281411 -0.45449,-0.425603 -0.07035,-0.06936 -0.143089,-0.137866 -0.210866,-0.208183 -0.06833,-0.07089 -0.13542,-0.142046 -0.201037,-0.213845 -0.131136,-0.143493 -0.256756,-0.288744 -0.376459,-0.43543 -0.179555,-0.220024 -0.345757,-0.443276 -0.497378,-0.668929 -0.101081,-0.150437 -0.195849,-0.30195 -0.283537,-0.454194 -0.0056,-0.0097 -0.01831,-0.02215 -0.028,-0.03336 -0.0082,-0.0095 -0.01279,-0.0175 -0.02383,-0.028 -0.01327,-0.01261 -0.03338,-0.02765 -0.05063,-0.0417 -0.01417,-0.01154 -0.02462,-0.02208 -0.0414,-0.03455 -5.7e-5,-4.4e-5 -3.04e-4,4.3e-5 -3.04e-4,0 -0.0255,-0.01894 -0.05802,-0.04036 -0.08935,-0.06135 -0.01443,-0.0097 -0.02548,-0.01821 -0.0411,-0.02829 -0.04949,-0.03194 -0.104866,-0.06598 -0.165892,-0.101859 -6.6e-5,-3.8e-5 -3.05e-4,3.8e-5 -3.05e-4,0 -0.122242,-0.07186 -0.266678,-0.151282 -0.430665,-0.236777 -0.491952,-0.256483 -1.158242,-0.567776 -1.917442,-0.894686 -0.506134,-0.217941 -1.053466,-0.442766 -1.61812,-0.662974 -9.2e-5,-3.5e-5 -1.53e-4,3.5e-5 -3.05e-4,0 -0.564565,-0.220172 -1.10644,-0.433709 -1.602932,-0.630808 -9.6e-5,-3.8e-5 -1.52e-4,3.8e-5 -3.05e-4,0 -0.496557,-0.197125 -0.947494,-0.377815 -1.329818,-0.533118 -0.573926,-0.233144 -0.992914,-0.408609 -1.179413,-0.494699 -0.0621,-0.02865 -0.0982,-0.04735 -0.10603,-0.0551 -1.7e-5,-1.7e-5 -3.05e-4,1.7e-5 -3.05e-4,0 -0.0039,-0.0039 3.05e-4,-0.01612 0.01191,-0.03604 0.03477,-0.05976 0.137424,-0.189957 0.297831,-0.379438 0.106901,-0.126275 0.239676,-0.278841 0.394926,-0.454491 4.2e-5,-4.9e-5 -4.4e-5,-3.05e-4 0,-3.05e-4 0.155323,-0.175732 0.333294,-0.374436 0.531034,-0.592984 0.790939,-0.874182 1.897169,-2.064368 3.128127,-3.359841 1.846433,-1.943214 3.431191,-3.67726 4.098762,-4.473732 0.166885,-0.19911 0.27635,-0.339552 0.318383,-0.410114 0.01401,-0.02352 0.02044,-0.03921 0.01906,-0.04676 -0.0014,-0.0075 -0.0084,-0.02029 -0.02085,-0.03812 -0.01249,-0.01788 -0.03025,-0.04085 -0.05331,-0.0685 -0.04593,-0.0551 -0.112243,-0.128882 -0.196867,-0.219502 -0.507732,-0.543745 -1.671376,-1.686576 -3.007208,-2.945557 h -3.05e-4 z m -44.425787,1.217238 c -0.09574,-3.05e-4 -0.19154,-6.1e-4 -0.287706,3.05e-4 -0.245518,0.0023 -0.49273,0.0092 -0.741005,0.01936 -0.04881,0.002 -0.09762,0.004 -0.146534,0.0063 -0.250187,0.01177 -0.501439,0.02674 -0.754408,0.04646 -0.01871,0.0015 -0.03756,0.0036 -0.05629,0.0051 -0.246227,0.01976 -0.49394,0.0436 -0.742792,0.07089 -0.03468,0.0038 -0.06921,0.0071 -0.103944,0.01102 -0.254494,0.02893 -0.510286,0.0621 -0.767512,0.09888 -0.04887,0.007 -0.09786,0.01447 -0.146831,0.02174 -0.261902,0.03889 -0.524837,0.08048 -0.789553,0.127471 -0.269076,0.04776 -0.539911,0.100831 -0.811889,0.156957 -0.04092,0.0084 -0.08172,0.01668 -0.122707,0.02532 -0.262548,0.05531 -0.526698,0.114428 -0.791935,0.177507 -0.04784,0.01138 -0.09593,0.02351 -0.143853,0.03514 -0.260865,0.0633 -0.522526,0.129648 -0.785978,0.20044 -0.01303,0.0035 -0.02598,0.0066 -0.03902,0.01013 -0.273512,0.07384 -0.549,0.152784 -0.825292,0.234691 -0.05189,0.01538 -0.103777,0.03079 -0.155766,0.04646 -0.26815,0.08081 -0.537266,0.164782 -0.808018,0.253156 -0.04627,0.01511 -0.09274,0.03114 -0.139087,0.04646 -0.251651,0.08321 -0.504393,0.169396 -0.758281,0.259114 -0.03945,0.01394 -0.07873,0.0273 -0.118239,0.0414 -0.274988,0.09814 -0.551565,0.201012 -0.829164,0.306767 -0.05726,0.02181 -0.114774,0.04368 -0.172145,0.06582 -0.283452,0.109378 -0.567729,0.221644 -0.853884,0.338934 -0.01745,0.0072 -0.03496,0.01485 -0.05242,0.02204 -0.274142,0.112762 -0.549868,0.229939 -0.826483,0.349952 -0.05224,0.02267 -0.10433,0.04498 -0.15666,0.06791 -0.283275,0.124095 -0.56803,0.251935 -0.853884,0.383606 -0.05442,0.02507 -0.108999,0.05061 -0.163509,0.07595 -0.295698,0.137462 -0.592373,0.277677 -0.890816,0.423219 -1.2e-4,5.8e-5 -1.52e-4,3.05e-4 -3.05e-4,3.05e-4 -0.305775,0.149123 -0.584843,0.287546 -0.838397,0.416369 -0.345357,0.17546 -0.628145,0.32802 -0.8842631,0.471169 -0.270466,0.151173 -0.505751,0.290268 -0.686799,0.412498 -0.02528,0.01707 -0.05349,0.03494 -0.07714,0.05152 -0.05883,0.04126 -0.112669,0.08125 -0.161724,0.119729 -0.09816,0.07698 -0.177207,0.148825 -0.238861,0.216523 -0.03084,0.03388 -0.05747,0.06657 -0.07982,0.09858 -0.08941,0.128036 -0.112568,0.242506 -0.08369,0.352932 0.03164,0.120993 0.11844,0.3245 0.246902,0.588217 0.128462,0.263718 0.29851,0.587551 0.496486,0.948893 0.395952,0.722683 0.9036381,1.595467 1.4138071,2.438051 4.4e-5,7.3e-5 -4.4e-5,1.53e-4 0,3.05e-4 0.25504,0.421215 0.510879,0.834881 0.753515,1.218429 0.242679,0.383619 0.472219,0.7371 0.675184,1.037946 4.5e-5,6.2e-5 -4.2e-5,3.05e-4 0,3.05e-4 0.202903,0.300743 0.379337,0.548716 0.51525,0.721646 4.1e-5,5.3e-5 -4.1e-5,3.05e-4 0,3.05e-4 0.101875,0.129607 0.181219,0.216979 0.23201,0.252561 0.01694,0.01186 0.0307,0.01787 0.0411,0.01787 0.02141,0 0.05107,-0.0039 0.08756,-0.01162 0.03649,-0.0078 0.07977,-0.01923 0.129259,-0.03395 0.296851,-0.08831 0.809003,-0.294898 1.31046,-0.534012 1.24e-4,-6e-5 1.53e-4,-3.05e-4 3.05e-4,-3.05e-4 0.05118,-0.0244 0.09962,-0.04444 0.149215,-0.06642 0.06488,-0.02875 0.12848,-0.05588 0.190315,-0.08041 0.147355,-0.05848 0.287304,-0.107541 0.413688,-0.141471 0.25663,-0.0689 0.464606,-0.08614 0.602514,-0.04825 0.0197,0.0054 0.03803,0.01197 0.0548,0.01966 0.03355,0.01536 0.06112,0.03501 0.0822,0.05957 3.3e-5,4e-5 -3.5e-5,3.05e-4 0,3.05e-4 0.0381,0.04442 0.104615,0.154141 0.191803,0.31451 4.9e-5,9e-5 -4.9e-5,1.53e-4 0,3.05e-4 0.174528,0.321042 0.432647,0.844537 0.71569,1.451335 0.141547,0.303458 0.289377,0.627592 0.436025,0.957827 2.767689,6.232535 8.730628,19.487362 10.370505,23.065587 2.8e-5,6.1e-5 -2.8e-5,3.05e-4 0,3.05e-4 0.234155,0.510927 0.380485,0.824797 0.416369,0.892304 0.02291,0.04311 0.04802,0.08397 0.07505,0.122707 4.8e-5,6.9e-5 -4.7e-5,3.05e-4 0,3.05e-4 0.02699,0.03867 0.05598,0.07505 0.08607,0.108709 0.09042,0.101157 0.19246,0.178318 0.292768,0.222481 0.100309,0.04416 0.199018,0.05524 0.282047,0.02472 0.221411,-0.08138 1.483143,-0.498471 2.804087,-0.926853 0.330236,-0.107094 0.652048,-0.215266 0.950679,-0.319276 0.298499,-0.103965 0.57399,-0.203635 0.812188,-0.293662 1.3e-4,-4.9e-5 1.67e-4,-3.05e-4 2.97e-4,-3.05e-4 0.0729,-0.02755 0.134947,-0.05215 0.200441,-0.07773 0.14842,-0.058 0.284343,-0.112595 0.387777,-0.15785 0.07448,-0.03257 0.135988,-0.06142 0.182869,-0.08577 0.0469,-0.02438 0.07907,-0.0442 0.09471,-0.05897 0.04691,-0.04431 -0.0262,-0.529575 -0.189719,-1.322075 -0.272529,-1.320836 -0.795919,-3.49538 -1.43138,-5.906305 -0.254184,-0.964367 -0.494465,-1.886027 -0.71152,-2.726054 -0.21702,-0.839917 -0.410718,-1.59846 -0.571241,-2.237015 -3e-5,-1.19e-4 2.9e-5,-1.52e-4 0,-3.05e-4 -0.321037,-1.277013 -0.509968,-2.074244 -0.488742,-2.083333 1.1e-5,-7e-6 2.89e-4,4e-6 3.05e-4,0 0.0075,-0.0033 0.07259,-0.05043 0.130748,-0.09203 0.02451,-0.01754 0.02284,-0.01507 0.0554,-0.03872 8.2e-5,-5.9e-5 2.14e-4,-3.05e-4 3.05e-4,-3.05e-4 0.109941,-0.07987 0.263888,-0.193014 0.45062,-0.331487 0.373464,-0.276944 0.877931,-0.654541 1.423338,-1.065642 0.475742,-0.358591 0.93674,-0.743998 1.379855,-1.151715 0.221558,-0.203859 0.438808,-0.41324 0.651061,-0.627533 0.106076,-0.107095 0.210902,-0.215463 0.31451,-0.324934 5e-5,-5.2e-5 -5e-5,-3.05e-4 0,-3.05e-4 0.207216,-0.218945 0.409615,-0.442598 0.606386,-0.670122 9.1e-5,-1.06e-4 2.13e-4,-1.52e-4 3.05e-4,-3.05e-4 0.09838,-0.11376 0.195357,-0.228323 0.290981,-0.343996 5e-5,-5.9e-5 -4.9e-5,-3.04e-4 0,-3.04e-4 0.07726,-0.09346 0.153033,-0.188025 0.228437,-0.282642 0.01798,-0.02256 0.03663,-0.04469 0.0545,-0.06731 0.185636,-0.234987 0.365425,-0.473089 0.539075,-0.7142 0.138842,-0.192781 0.272228,-0.387765 0.402967,-0.583751 0.03277,-0.04912 0.06663,-0.09783 0.09888,-0.147128 4.6e-5,-7e-5 -4.6e-5,-1.53e-4 0,-3.05e-4 0.0804,-0.122932 0.159404,-0.246285 0.236478,-0.370206 4.5e-5,-7.2e-5 -4.5e-5,-1.53e-4 0,-3.05e-4 0.154188,-0.247912 0.301689,-0.497498 0.441983,-0.748451 4.3e-5,-7.8e-5 -4.3e-5,-1.52e-4 0,-3.05e-4 0.140287,-0.25095 0.273466,-0.503136 0.399095,-0.755897 3.9e-5,-8.1e-5 -4e-5,-1.52e-4 0,-3.05e-4 0.125622,-0.252758 0.243923,-0.506134 0.354122,-0.759471 3.6e-5,-8.4e-5 -3.7e-5,-1.53e-4 0,-3.05e-4 0.05508,-0.126626 0.108259,-0.253196 0.15934,-0.379737 3.4e-5,-8.5e-5 -3.5e-5,-1.52e-4 0,-3.05e-4 0.05108,-0.126537 0.100143,-0.252842 0.147129,-0.37914 3.2e-5,-8.8e-5 -3.3e-5,-1.52e-4 0,-3.05e-4 0.09399,-0.252679 0.179987,-0.504804 0.257028,-0.7556 2.9e-5,-9.1e-5 -2.8e-5,-1.52e-4 0,-3.05e-4 0.0385,-0.125351 0.07488,-0.250321 0.109007,-0.374971 2.5e-5,-9.3e-5 -2.6e-5,-1.52e-4 0,-3.05e-4 0.03412,-0.124646 0.06596,-0.248795 0.0956,-0.372587 2.3e-5,-9.5e-5 -2.3e-5,-1.53e-4 0,-3.05e-4 0.02964,-0.12379 0.05713,-0.247127 0.0822,-0.369909 2e-5,-9.6e-5 -1.9e-5,-1.52e-4 0,-3.05e-4 0.02507,-0.122779 0.0478,-0.245014 0.0682,-0.36663 1.6e-5,-9.7e-5 -1.6e-5,-1.52e-4 0,-3.05e-4 0.04081,-0.243322 0.07225,-0.484195 0.09382,-0.721943 9e-6,-1.01e-4 -9e-6,-1.53e-4 0,-3.05e-4 0.03008,-0.331677 0.04106,-0.65813 0.03246,-0.979867 -0.0086,-0.32174 -0.03679,-0.638635 -0.08429,-0.950977 -0.02373,-0.156071 -0.05229,-0.31109 -0.08577,-0.464914 -2.1e-5,-9.5e-5 2e-5,-1.53e-4 0,-3.05e-4 -0.03351,-0.153919 -0.07195,-0.306626 -0.115261,-0.458364 -0.08662,-0.303479 -0.192701,-0.602507 -0.31868,-0.897665 -3.5e-5,-8.1e-5 3.5e-5,-1.53e-4 0,-3.05e-4 -0.314941,-0.737803 -0.753335,-1.450328 -1.316715,-2.142006 -4.7e-5,-5.8e-5 4.7e-5,-3.05e-4 0,-3.05e-4 -0.112687,-0.138348 -0.230515,-0.27579 -0.353228,-0.412496 -0.122715,-0.136707 -0.250541,-0.272601 -0.38331,-0.407732 -0.13272,-0.135081 -0.270297,-0.269394 -0.413093,-0.402966 -5.5e-5,-5.2e-5 -2.44e-4,5.1e-5 -3.05e-4,0 -0.27429,-0.256566 -0.544147,-0.493959 -0.813676,-0.713606 -0.26953,-0.219646 -0.538662,-0.421668 -0.811592,-0.607875 -0.272858,-0.186157 -0.549517,-0.356651 -0.833929,-0.512866 -7.7e-5,-4.3e-5 -2.21e-4,4.2e-5 -2.98e-4,0 -0.142245,-0.07812 -0.286381,-0.152682 -0.433047,-0.22397 -0.14667,-0.07128 -0.295828,-0.139132 -0.447939,-0.204014 -0.304214,-0.129769 -0.620369,-0.247351 -0.952466,-0.354122 -0.664211,-0.213537 -1.39206,-0.384436 -2.216763,-0.526864 -0.412348,-0.07122 -0.849021,-0.135232 -1.313736,-0.19389 -0.182742,-0.02307 -0.36654,-0.04309 -0.550989,-0.06135 -0.06061,-0.006 -0.121484,-0.01089 -0.182273,-0.01638 -0.130956,-0.01182 -0.262227,-0.02275 -0.394031,-0.03217 -0.06206,-0.0044 -0.124199,-0.0086 -0.186443,-0.01251 -0.144027,-0.009 -0.288618,-0.01675 -0.433643,-0.02293 -0.04358,-0.0019 -0.08707,-0.0041 -0.130748,-0.0057 -0.195246,-0.0072 -0.391184,-0.01228 -0.588218,-0.0143 -0.05264,-6.1e-4 -0.105673,1.52e-4 -0.158447,0 z m 63.84621,1.740826 c -0.246372,4.58e-4 -0.493129,0.0089 -0.739814,0.02472 -0.218152,0.014 -0.436269,0.03387 -0.653741,0.06016 -0.0116,0.0014 -0.02325,0.0024 -0.03485,0.0039 -0.118615,0.0147 -0.237112,0.03133 -0.355313,0.04974 -0.216403,0.03371 -0.431951,0.07462 -0.646295,0.12092 -0.04793,0.01035 -0.09576,0.02118 -0.143554,0.03216 -0.08901,0.02046 -0.178047,0.04106 -0.26656,0.06374 -0.18991,0.04865 -0.372419,0.100425 -0.555457,0.152192 -0.14847,0.04199 -0.294383,0.08546 -0.438408,0.129557 -0.167992,0.05143 -0.337122,0.10229 -0.499167,0.156659 -0.117937,0.03957 -0.234519,0.07976 -0.349356,0.12092 -1.17e-4,4.3e-5 -1.52e-4,3.05e-4 -3.05e-4,3.05e-4 -0.07225,0.0259 -0.142805,0.05268 -0.213844,0.07923 -0.08659,0.03235 -0.172225,0.06527 -0.257029,0.09858 -0.06688,0.02627 -0.134364,0.05204 -0.200143,0.07893 -1.18e-4,4.9e-5 -1.53e-4,3.05e-4 -3.05e-4,3.05e-4 -0.108741,0.04444 -0.216191,0.08969 -0.321957,0.135812 -0.105883,0.04617 -0.210375,0.09328 -0.313318,0.141172 -0.10286,0.04785 -0.204418,0.09664 -0.304385,0.146235 -0.100044,0.04964 -0.198856,0.100183 -0.296044,0.151596 -0.09711,0.05138 -0.192812,0.103777 -0.287111,0.156958 -0.188746,0.106443 -0.37206,0.216441 -0.549797,0.330296 -0.177663,0.113816 -0.349739,0.231465 -0.516738,0.352931 -1.12e-4,8e-5 -1.53e-4,1.52e-4 -3.05e-4,3.04e-4 -0.08342,0.06068 -0.165789,0.122323 -0.246606,0.184954 -0.321154,0.248883 -0.621875,0.513684 -0.903621,0.794616 -0.07313,0.07293 -0.145343,0.147018 -0.215929,0.222182 -0.137044,0.145937 -0.269303,0.296056 -0.397009,0.45062 -0.127707,0.154564 -0.250907,0.313394 -0.369609,0.476828 -4.8e-5,6.4e-5 4.7e-5,3.05e-4 0,3.05e-4 -0.02447,0.03369 -0.04798,0.06838 -0.07208,0.102454 -0.151183,0.213803 -0.295873,0.434376 -0.43275,0.663568 -0.105822,0.177197 -0.207325,0.358956 -0.30498,0.545629 -6.2e-5,1.19e-4 -3.05e-4,1.53e-4 -3.05e-4,3.05e-4 -0.04876,0.09322 -0.09647,0.187904 -0.143256,0.283537 -0.072,0.147165 -0.140149,0.297567 -0.204314,0.451214 -5e-5,1.22e-4 -3.05e-4,1.53e-4 -3.05e-4,3.05e-4 -0.384897,0.921794 -0.628241,1.952752 -0.726114,3.002444 -9e-6,9.8e-5 9e-6,1.53e-4 0,3.05e-4 -0.0011,0.01139 -0.0014,0.02286 -0.0024,0.03425 -0.03053,0.338585 -0.04666,0.679024 -0.04676,1.018286 -5.2e-5,0.17539 0.0041,0.350437 0.01221,0.524781 6e-6,9.9e-5 -5e-6,1.52e-4 0,3.04e-4 0.0081,0.174243 0.02028,0.347653 0.03663,0.520015 9e-6,9.8e-5 -9e-6,1.53e-4 0,3.05e-4 0.01636,0.172361 0.03703,0.343818 0.06165,0.513463 0.04928,0.339491 0.11488,0.67265 0.197462,0.996247 0.04129,0.161799 0.08703,0.321449 0.136704,0.478021 0.04964,0.156444 0.103373,0.310057 0.161426,0.460447 3.4e-5,8.7e-5 -3.3e-5,1.53e-4 0,3.05e-4 0.04857,0.125802 0.103263,0.252641 0.163509,0.380034 4e-5,8.3e-5 -3.8e-5,1.53e-4 0,3.05e-4 0.180842,0.382361 0.412409,0.769856 0.683226,1.151717 0.03865,0.0545 0.081,0.108388 0.121218,0.162615 0.147723,0.199202 0.302904,0.396776 0.469681,0.590304 0.21213,0.246152 0.438274,0.486397 0.675184,0.717477 0.236911,0.231078 0.484594,0.452973 0.739516,0.662378 0.127462,0.104701 0.256784,0.206337 0.38748,0.304383 0.261392,0.196092 0.52834,0.378134 0.797594,0.542649 0.269253,0.164517 0.540648,0.311473 0.810996,0.437814 0.135173,0.06317 0.269979,0.121248 0.404158,0.173636 8.4e-5,3.2e-5 1.52e-4,-3.2e-5 3.05e-4,0 0.06735,0.02629 0.136703,0.05176 0.208185,0.07654 9e-5,3.2e-5 1.53e-4,-3e-5 3.05e-4,0 0.214715,0.07443 0.447418,0.142107 0.695139,0.202824 0.660591,0.161912 1.427136,0.274929 2.237908,0.33804 0.405387,0.03155 0.821782,0.05068 1.241662,0.05718 0.41988,0.0065 0.843206,3.05e-4 1.262212,-0.01847 0.628507,-0.02819 1.247457,-0.08488 1.830772,-0.170658 0.583314,-0.08578 1.130972,-0.200727 1.617226,-0.344889 0.512479,-0.151937 1.132864,-0.367621 1.719383,-0.592684 0.293261,-0.112533 0.57793,-0.2273 0.83661,-0.337743 0.258681,-0.110442 0.491244,-0.216464 0.679951,-0.311233 0.120215,-0.06037 0.243855,-0.125431 0.369609,-0.194187 0.251508,-0.137512 0.512099,-0.290324 0.774958,-0.453001 0.394289,-0.244019 0.793232,-0.510154 1.172564,-0.779427 0.253011,-0.179604 0.497183,-0.360408 0.725518,-0.537289 0.11412,-0.0884 0.224143,-0.17557 0.329402,-0.261198 0.315776,-0.256885 0.587416,-0.498117 0.791046,-0.704968 0.0679,-0.06895 0.12837,-0.134179 0.18018,-0.194782 0.0519,-0.06069 0.095,-0.116757 0.12896,-0.167679 0.017,-0.02543 0.0316,-0.04934 0.0438,-0.07208 0.0122,-0.02273 0.022,-0.04417 0.0292,-0.06403 0.0143,-0.03972 0.0182,-0.07347 0.011,-0.100666 -0.0132,-0.05003 -0.0858,-0.152972 -0.20609,-0.296045 -0.0601,-0.07149 -0.13217,-0.152762 -0.21444,-0.242734 -0.24681,-0.269939 -0.58653,-0.615964 -0.977785,-0.995056 -0.260837,-0.252715 -0.544548,-0.520079 -0.838992,-0.789551 l -2.141411,-1.959735 -1.560639,1.19103 -3.05e-4,3.05e-4 c -0.09518,0.07265 -0.193737,0.144281 -0.295152,0.214738 -1.15e-4,7.9e-5 -1.53e-4,1.52e-4 -3.05e-4,3.05e-4 -0.202961,0.140989 -0.417267,0.277068 -0.637955,0.406541 -1.19e-4,6.8e-5 -1.53e-4,1.52e-4 -3.05e-4,3.05e-4 -0.182988,0.107354 -0.37081,0.20874 -0.559924,0.305873 -0.0937,0.04813 -0.187548,0.09445 -0.281749,0.139682 -0.05969,0.02867 -0.119322,0.05836 -0.178996,0.08578 -1.2e-4,5.5e-5 -1.52e-4,3.05e-4 -3.05e-4,3.05e-4 -0.06413,0.02946 -0.127901,0.05634 -0.191803,0.08429 -0.164585,0.07199 -0.328472,0.140646 -0.48904,0.201633 -0.334303,0.126966 -0.656119,0.228617 -0.948892,0.298724 -0.181235,0.0434 -0.349905,0.07337 -0.505123,0.09114 -0.09548,0.01093 -0.186857,0.01813 -0.270133,0.01846 -0.10948,4.58e-4 -0.207697,-0.0084 -0.292471,-0.0277 -0.02814,-0.0064 -0.0547,-0.01397 -0.07982,-0.02264 -8.3e-5,-2.8e-5 -1.53e-4,3.1e-5 -3.05e-4,0 -0.01386,-0.0048 -0.02207,-0.01523 -0.02502,-0.03097 -0.0059,-0.03147 0.0096,-0.08426 0.04467,-0.156065 0.12266,-0.251309 0.484916,-0.735649 1.00816,-1.354241 0.06939,-0.08203 0.150592,-0.173781 0.225459,-0.260305 0.171124,-0.197769 0.354673,-0.404874 0.551286,-0.622171 0.08795,-0.0972 0.170572,-0.190371 0.262986,-0.290684 4.7e-5,-5e-5 -4.8e-5,-3.05e-4 0,-3.05e-4 0.194732,-0.211372 0.398991,-0.42897 0.610853,-0.650762 1.694763,-1.774195 3.694263,-3.880936 4.443652,-4.681916 l 3.04e-4,-3.05e-4 1.361985,-1.455801 -1.143674,-1.180309 c -0.09805,-0.101159 -0.200337,-0.198963 -0.304682,-0.29515 -0.02502,-0.02307 -0.05028,-0.04602 -0.07565,-0.0688 -0.105624,-0.09482 -0.213157,-0.188116 -0.324637,-0.277878 -0.110912,-0.0893 -0.225534,-0.175192 -0.34191,-0.259411 -0.02936,-0.02125 -0.05906,-0.04222 -0.08875,-0.06314 -0.117775,-0.08297 -0.237251,-0.164655 -0.360079,-0.242436 -7.1e-5,-4.6e-5 -1.52e-4,4.6e-5 -3.05e-4,0 -0.123347,-0.07811 -0.249839,-0.152372 -0.377947,-0.22516 -0.03142,-0.01786 -0.06302,-0.03548 -0.09471,-0.05302 -0.128898,-0.07129 -0.259326,-0.141093 -0.392541,-0.206993 -0.131625,-0.06511 -0.265962,-0.12667 -0.401478,-0.186443 -0.03748,-0.01653 -0.07512,-0.03272 -0.112878,-0.04884 -0.136413,-0.05823 -0.273803,-0.11488 -0.413688,-0.16768 -0.141183,-0.05329 -0.284786,-0.102728 -0.429176,-0.150405 -0.03813,-0.0126 -0.07632,-0.02503 -0.114666,-0.03723 -0.144037,-0.04582 -0.288942,-0.08996 -0.435728,-0.130152 -9.3e-5,-2.6e-5 -1.52e-4,2.5e-5 -3.05e-4,0 -0.149066,-0.04082 -0.299952,-0.07764 -0.451513,-0.11258 -0.03567,-0.0082 -0.07143,-0.01623 -0.10722,-0.02412 -0.152783,-0.03369 -0.306165,-0.06556 -0.461043,-0.09322 -0.155128,-0.0277 -0.311604,-0.05111 -0.46849,-0.07267 -0.03511,-0.0048 -0.07025,-0.0095 -0.105431,-0.014 -0.157535,-0.02022 -0.315574,-0.03846 -0.474447,-0.05242 -9.9e-5,-10e-6 -1.52e-4,7e-6 -3.05e-4,0 -0.157136,-0.0138 -0.315143,-0.02338 -0.473254,-0.03098 -0.0395,-0.0019 -0.07899,-0.0036 -0.118538,-0.0051 -0.157706,-0.006 -0.315591,-0.01008 -0.47385,-0.0098 -9.9e-5,1e-6 -1.52e-4,0 -3.05e-4,0 z m 49.231005,0.689482 c -0.0446,-0.0012 -0.0821,-7.62e-4 -0.11169,0.0012 -0.0296,0.002 -0.0514,0.0056 -0.0649,0.01072 -0.0182,0.007 -0.0361,0.01547 -0.0536,0.02561 -0.0351,0.02028 -0.0689,0.04668 -0.10096,0.07863 -0.016,0.01598 -0.0316,0.03316 -0.0468,0.05182 -5e-5,6e-5 5e-5,3.05e-4 0,3.05e-4 -0.0607,0.07456 -0.11442,0.169918 -0.15904,0.280856 -4e-5,8.7e-5 3e-5,1.53e-4 0,3.05e-4 -0.0892,0.222118 -0.14237,0.506854 -0.14237,0.813081 0,0.493192 0.0581,0.786466 0.26746,1.00399 0.0233,0.02417 0.0485,0.04752 0.0756,0.06999 0.0271,0.02247 0.0563,0.04412 0.0876,0.06522 0.0625,0.04221 0.13338,0.08212 0.21384,0.12092 0.12068,0.0582 0.26258,0.113965 0.42947,0.172146 l 1.07398,0.374375 v 3.05e-4 l -0.21831,2.348701 c -0.0792,0.852266 -0.12438,1.403122 -0.0908,1.84209 0.006,0.07316 0.0134,0.14304 0.0235,0.210865 0.002,0.01095 0.005,0.02103 0.006,0.03187 0.0177,0.108681 0.0422,0.212165 0.0736,0.313618 0.004,0.01379 0.007,0.02797 0.0116,0.0417 0.008,0.02358 0.0179,0.0471 0.0265,0.07059 0.0141,0.03869 0.0274,0.07737 0.0438,0.116154 5e-5,1.21e-4 3.1e-4,1.53e-4 3.1e-4,3.05e-4 0.0792,0.186929 0.18532,0.377533 0.32434,0.595365 7e-5,1.21e-4 1.5e-4,1.53e-4 3e-4,3.05e-4 0.13913,0.217984 0.31099,0.463146 0.52121,0.759472 0.1018,0.143506 0.19881,0.284187 0.29128,0.422325 7e-5,1.13e-4 1.5e-4,1.52e-4 3e-4,3.05e-4 0.37014,0.552985 0.6666,1.067277 0.89916,1.579104 0.17442,0.383871 0.31281,0.766398 0.41934,1.162437 0.14204,0.528054 0.22743,1.080396 0.26567,1.692877 0.0287,0.459361 0.0309,0.952347 0.0107,1.49452 -10e-6,1.02e-4 0,1.53e-4 0,3.05e-4 -3.1e-4,0.0085 -9.2e-4,0.01772 -0.001,0.02621 -0.007,0.172654 -0.0152,0.349757 -0.0262,0.532821 -0.0112,0.186308 -0.0266,0.371815 -0.0459,0.556648 -0.0192,0.184831 -0.0425,0.36871 -0.0697,0.551882 -2e-5,9.8e-5 1e-5,1.53e-4 0,3.05e-4 -0.005,0.03124 -0.0112,0.06204 -0.0161,0.09322 -0.0522,0.334457 -0.11581,0.666533 -0.19419,0.99446 -0.12856,0.5379 -0.29208,1.066349 -0.48934,1.582679 -0.0657,0.172109 -0.13525,0.342628 -0.20848,0.511972 -3e-5,8.6e-5 4e-5,1.53e-4 0,3.05e-4 -0.0732,0.169261 -0.15024,0.337023 -0.23082,0.503337 -4e-5,8.1e-5 4e-5,1.53e-4 0,3.05e-4 -0.0272,0.05622 -0.0574,0.111211 -0.0855,0.167083 -0.13808,0.274761 -0.28385,0.546419 -0.44198,0.812188 -0.0952,0.159945 -0.19373,0.318004 -0.29604,0.474446 -5e-5,7.2e-5 4e-5,1.52e-4 0,3.05e-4 -0.2046,0.312815 -0.4237,0.61842 -0.65643,0.91613 -4e-5,6.3e-5 5e-5,3.05e-4 0,3.05e-4 -0.23273,0.297712 -0.47958,0.587344 -0.73981,0.868478 -5e-5,5.4e-5 5e-5,3.05e-4 0,3.05e-4 -0.26623,0.287617 -0.47553,0.528145 -0.64123,0.756491 -5e-5,6.3e-5 4e-5,3.05e-4 0,3.05e-4 -0.16566,0.228319 -0.28788,0.444292 -0.37974,0.68263 -0.023,0.0596 -0.044,0.120536 -0.0634,0.183464 -3e-5,9.2e-5 3e-5,1.53e-4 0,3.05e-4 -0.0388,0.125871 -0.071,0.259346 -0.098,0.405051 -0.0675,0.364265 -0.1036,0.804006 -0.13402,1.387003 l -0.1102,2.112522 1.37241,0.227841 c 0.75482,0.125296 2.01756,0.325429 2.80617,0.444662 l 1.43376,0.216523 0.3574,-1.801287 c 0.0983,-0.495397 0.27565,-1.447592 0.48219,-2.582498 0.20651,-1.134859 0.44227,-2.45261 0.65731,-3.679118 v -3.05e-4 l 0.78211,-4.460032 0.21474,2.401418 v 3.05e-4 c 0.0295,0.330222 0.0592,0.79486 0.0873,1.35186 0,1.08e-4 -1e-5,1.52e-4 0,3.05e-4 0.014,0.278492 0.0277,0.580094 0.0408,0.899452 0,1.06e-4 -1e-5,1.53e-4 0,3.05e-4 0.0394,0.958329 0.0737,2.076962 0.0986,3.213309 0.0166,0.75764 0.0289,1.523052 0.0354,2.254288 0.013,1.462475 0.0475,2.876631 0.0926,3.976949 0,9.3e-5 -1e-5,1.53e-4 0,3.05e-4 0.0226,0.550022 0.0479,1.02169 0.0745,1.381642 0,8.6e-5 -1e-5,1.53e-4 0,3.05e-4 0.0132,0.179858 0.0268,0.331863 0.0405,0.451811 1e-5,8e-5 -1e-5,1.53e-4 0,3.05e-4 0.007,0.05987 0.0136,0.111791 0.0205,0.155169 1e-5,8.3e-5 -1e-5,1.53e-4 0,3.05e-4 0.007,0.0433 0.0139,0.07814 0.0208,0.103944 2e-5,7.1e-5 -2e-5,1.52e-4 0,3.05e-4 0.0188,0.06995 0.0445,0.136852 0.078,0.201333 4e-5,8.1e-5 -4e-5,1.53e-4 0,3.05e-4 0.0336,0.06449 0.0752,0.126422 0.12568,0.186741 5e-5,6.3e-5 -5e-5,3.05e-4 0,3.05e-4 0.25256,0.301837 0.7299,0.559803 1.56332,0.854778 1e-4,3.3e-5 1.5e-4,-3.4e-5 3.1e-4,0 0.16674,0.05901 0.34781,0.119332 0.54413,0.181975 0.29005,0.09255 0.58086,0.179426 0.85865,0.257028 0.27769,0.07757 0.54226,0.146033 0.77913,0.20193 9e-5,2.1e-5 1.5e-4,-2e-5 3.1e-4,0 0.11835,0.02792 0.22988,0.05292 0.33267,0.07416 9e-5,1.9e-5 1.6e-4,-1.8e-5 3.1e-4,0 0.10276,0.02123 0.1969,0.039 0.28056,0.05272 8e-5,1.5e-5 1.5e-4,-1.4e-5 3e-4,0 0.16732,0.02744 0.29268,0.03895 0.36217,0.03127 7e-5,-8e-6 1.5e-4,7e-6 3e-4,0 0.0108,-0.0012 0.0231,-0.0072 0.0366,-0.01757 0.0408,-0.0313 0.0937,-0.104304 0.15904,-0.2198 0.26155,-0.461982 0.72258,-1.604471 1.40428,-3.485526 4e-5,-1.05e-4 3e-4,-1.52e-4 3e-4,-3.05e-4 0.45445,-1.253985 1.0068,-2.836304 1.66339,-4.763522 0.65666,-1.927381 1.41734,-4.199805 2.28854,-6.834646 0.69402,-2.098964 1.35731,-4.117791 1.96182,-5.970039 0.60449,-1.852251 1.15028,-3.537883 1.60978,-4.970515 0.45953,-1.432627 0.83277,-2.612359 1.09185,-3.452467 0.25906,-0.84011 0.40398,-1.340612 0.40714,-1.415297 0.004,-0.104163 -0.0447,-0.201488 -0.1644,-0.298129 -0.0599,-0.04832 -0.1374,-0.09657 -0.23469,-0.145342 -0.0973,-0.04879 -0.21449,-0.09812 -0.35353,-0.148916 -0.0695,-0.02538 -0.14418,-0.05096 -0.22486,-0.07714 -0.0808,-0.02619 -0.16721,-0.05294 -0.25971,-0.08012 -0.18484,-0.05431 -0.39346,-0.110653 -0.62843,-0.170063 -0.23503,-0.05942 -0.49624,-0.121859 -0.78568,-0.187932 -0.28926,-0.06603 -0.60671,-0.135748 -0.95455,-0.209971 -1e-4,-2.1e-5 -1.5e-4,2.2e-5 -3.1e-4,0 -0.49897,-0.106473 -0.97803,-0.204951 -1.41708,-0.291577 -0.4392,-0.08666 -0.83805,-0.161377 -1.17643,-0.220991 -0.16915,-0.0298 -0.32295,-0.05575 -0.45926,-0.07744 -0.40895,-0.06509 -0.65874,-0.09166 -0.68025,-0.06761 -0.007,0.008 -0.0244,0.05965 -0.0509,0.151 -4e-5,1.52e-4 5e-5,1.37e-4 0,3.05e-4 -0.0797,0.274149 -0.2418,0.903474 -0.45687,1.770311 -0.28684,1.15606 -0.66806,2.734513 -1.07458,4.456458 -0.10163,0.430487 -0.20259,0.851403 -0.30141,1.258042 -0.49417,2.033588 -0.93867,3.715029 -1.18924,4.50977 -0.0329,0.104315 -0.0566,0.16778 -0.0825,0.24035 -0.0135,0.03792 -0.0317,0.09695 -0.0432,0.125685 -2e-5,6.1e-5 3e-5,3.05e-4 0,3.05e-4 -0.0167,0.04173 -0.0314,0.07359 -0.0435,0.09501 -3e-5,5.6e-5 3e-5,3.05e-4 0,3.05e-4 -0.0121,0.0213 -0.0217,0.03217 -0.0289,0.03217 -1e-4,5e-6 -1.5e-4,3.05e-4 -3e-4,3.05e-4 -0.007,0 -0.017,-0.0125 -0.0292,-0.03693 -3e-5,-5.8e-5 3e-5,-3.05e-4 0,-3.05e-4 -0.0121,-0.02436 -0.0267,-0.06065 -0.0435,-0.108112 -2e-5,-6.3e-5 2e-5,-3.05e-4 0,-3.05e-4 -0.0337,-0.09519 -0.0764,-0.235478 -0.12688,-0.416072 -2e-5,-7.6e-5 2e-5,-1.52e-4 0,-3.05e-4 -0.1011,-0.361523 -0.2338,-0.88431 -0.38837,-1.529367 -2e-5,-8.7e-5 2e-5,-1.52e-4 0,-3.05e-4 -0.0773,-0.32251 -0.16005,-0.675529 -0.2472,-1.054326 -2e-5,-8.8e-5 2e-5,-1.52e-4 0,-3.05e-4 -0.0872,-0.378911 -0.1787,-0.783406 -0.27341,-1.208898 -0.18944,-0.850989 -0.39184,-1.785265 -0.59745,-2.764179 -0.20561,-0.978913 -0.40375,-1.916224 -0.58613,-2.772217 -0.1824,-0.855995 -0.3488,-1.63084 -0.49083,-2.284967 -0.28405,-1.308253 -0.47046,-2.133661 -0.49023,-2.16077 -0.002,-0.0034 -0.0116,-0.0078 -0.0167,-0.01162 -0.007,-0.0055 -0.0126,-0.01063 -0.0256,-0.01698 -0.01,-0.0048 -0.0256,-0.01029 -0.0384,-0.01549 -0.0145,-0.0059 -0.0275,-0.01171 -0.0459,-0.01817 -0.0315,-0.01109 -0.0861,-0.02523 -0.12837,-0.03783 -0.0544,-0.01625 -0.10323,-0.03179 -0.17423,-0.05033 -0.0643,-0.01677 -0.14669,-0.03605 -0.22337,-0.0545 -0.0717,-0.01725 -0.13786,-0.03385 -0.21951,-0.05242 -0.098,-0.02228 -0.21006,-0.04605 -0.32106,-0.06999 -0.0694,-0.01497 -0.13593,-0.02973 -0.20997,-0.04527 -0.21012,-0.0441 -0.4707,-0.09375 -0.71241,-0.141469 -0.24673,-0.04871 -0.48191,-0.09615 -0.75292,-0.14713 -0.23161,-0.04356 -0.47977,-0.08804 -0.72314,-0.132236 -0.30889,-0.05608 -0.61557,-0.111713 -0.9334,-0.167085 -0.22495,-0.03919 -0.44728,-0.07636 -0.67191,-0.114368 -0.33076,-0.05594 -0.65952,-0.111075 -0.97898,-0.162615 -0.2329,-0.03757 -0.45025,-0.07091 -0.67131,-0.105135 -0.36415,-0.05635 -0.73018,-0.113049 -1.04449,-0.157256 -0.0329,-0.0046 -0.0691,-0.01013 -0.10127,-0.01459 -0.15276,-0.0212 -0.29031,-0.03888 -0.4262,-0.05629 -0.0599,-0.0077 -0.12634,-0.01696 -0.18257,-0.02383 -0.11809,-0.01442 -0.21558,-0.02451 -0.316,-0.03514 -0.0569,-0.006 -0.12383,-0.01404 -0.17452,-0.01876 -0.13174,-0.01223 -0.24204,-0.0198 -0.32702,-0.02234 -0.003,-9.4e-5 -0.009,-7.62e-4 -0.0119,-9.14e-4 z m -50.766924,3.694306 c 1.110346,0.01878 2.27085,0.356147 2.994401,0.913748 l 0.7693,0.592983 -3.289552,3.774125 c -3.85464,4.422393 -3.298709,3.886405 -3.83399,3.695498 -0.668329,-0.238357 -1.792053,-2.675973 -1.792053,-3.887301 0,-2.331917 1.803906,-4.543415 4.076424,-4.997916 0.340958,-0.06819 0.705355,-0.09739 1.07547,-0.09114 z m -58.945089,2.7198 c 1.709374,-0.0106 2.115009,0.123179 3.162974,1.043306 1.339348,1.175958 1.781548,2.650991 1.406362,4.691446 -0.175401,0.953907 -0.758778,1.796808 -2.255779,3.259472 -1.110535,1.085057 -2.15707,1.972838 -2.325768,1.972838 -0.168699,0 -1.000988,-2.277338 -1.849536,-5.060759 -1.539695,-5.050523 -1.541204,-5.06155 -0.820825,-5.477425 0.397011,-0.229198 1.604077,-0.422192 2.682572,-0.428878 z m 103.732443,1.425424 c -0.14888,0.0011 -0.29831,0.0067 -0.44824,0.01488 -0.0228,0.0012 -0.0456,0.0022 -0.0685,0.0036 -0.14254,0.0088 -0.28567,0.02137 -0.42887,0.03663 -0.0273,0.0029 -0.0546,0.0058 -0.0819,0.0089 -0.14496,0.01669 -0.2901,0.03627 -0.43543,0.05957 -0.0205,0.0033 -0.0409,0.007 -0.0614,0.01043 -0.15336,0.02556 -0.3067,0.05401 -0.46015,0.08697 -0.15523,0.03334 -0.3105,0.07134 -0.46551,0.112283 -0.0168,0.0044 -0.0336,0.0086 -0.0503,0.0131 -0.1479,0.03986 -0.29547,0.08363 -0.44288,0.130451 -0.0253,0.008 -0.0506,0.01618 -0.076,0.02442 -0.14332,0.04672 -0.28632,0.09646 -0.42888,0.14981 -0.0236,0.0088 -0.0473,0.01808 -0.0709,0.0271 -0.30052,0.114895 -0.59909,0.244674 -0.89439,0.389267 -0.0203,0.0099 -0.0405,0.01943 -0.0608,0.02948 -0.14087,0.07006 -0.28098,0.143805 -0.42024,0.220694 -0.0265,0.01462 -0.0528,0.02951 -0.0792,0.04438 -0.13851,0.07796 -0.27618,0.158846 -0.41279,0.243626 -0.018,0.01119 -0.0359,0.02294 -0.0539,0.03425 -0.14521,0.09126 -0.28972,0.185392 -0.43245,0.28443 -0.14053,0.09751 -0.27914,0.199899 -0.41697,0.30498 -0.0196,0.01497 -0.0394,0.02955 -0.059,0.04467 -0.13299,0.102735 -0.26447,0.209414 -0.39462,0.319274 -0.0206,0.01742 -0.0414,0.03482 -0.0619,0.05242 -0.1314,0.112453 -0.26139,0.228361 -0.38957,0.348165 -0.0139,0.01296 -0.0276,0.02627 -0.0414,0.03931 -0.13376,0.126207 -0.26621,0.25557 -0.39612,0.389862 -0.38978,0.402959 -0.74385,0.818194 -1.06206,1.242852 -5e-5,6.2e-5 4e-5,3.05e-4 0,3.05e-4 -0.10604,0.141506 -0.20839,0.283919 -0.30647,0.427388 -5e-5,6.6e-5 4e-5,3.05e-4 0,3.05e-4 -0.1962,0.287003 -0.37652,0.577653 -0.54086,0.871158 -5e-5,7.5e-5 4e-5,1.52e-4 0,3.05e-4 -0.0821,0.146712 -0.16051,0.293981 -0.2347,0.441981 -4e-5,7.8e-5 4e-5,1.53e-4 0,3.05e-4 -0.0742,0.147998 -0.14436,0.296492 -0.21056,0.445556 -4e-5,8.2e-5 3e-5,1.52e-4 0,3.05e-4 -0.0662,0.149062 -0.12851,0.298635 -0.18674,0.448535 -4e-5,8.6e-5 3e-5,1.53e-4 0,3.05e-4 -0.0582,0.149899 -0.11266,0.300105 -0.16292,0.45062 -3e-5,8.8e-5 3e-5,1.52e-4 0,3.05e-4 -0.0502,0.150512 -0.0965,0.301203 -0.13879,0.452108 -2e-5,9.2e-5 3e-5,1.53e-4 0,3.05e-4 -0.0423,0.150904 -0.0807,0.30193 -0.11496,0.453003 -2e-5,9.3e-5 2e-5,1.53e-4 0,3.05e-4 -0.006,0.02521 -0.01,0.05044 -0.0152,0.07565 -0.0604,0.277035 -0.10909,0.554246 -0.14266,0.830654 -0.0366,0.301658 -0.0573,0.60264 -0.0619,0.901834 -0.005,0.299194 0.007,0.596478 0.0339,0.89141 1e-5,9.9e-5 -10e-6,1.53e-4 0,3.05e-4 0.0548,0.589766 0.17374,1.169331 0.3568,1.731296 0.0915,0.28103 0.19919,0.557779 0.32285,0.829164 0.0618,0.135693 0.1276,0.270021 0.19746,0.402967 0.2096,0.398835 0.45547,0.784623 0.73743,1.154694 0.094,0.123357 0.19193,0.245131 0.29396,0.364843 0.10204,0.119712 0.2083,0.237386 0.31838,0.353229 0.11009,0.115844 0.22407,0.229863 0.34221,0.341613 0.11815,0.11175 0.24013,0.221375 0.36634,0.328807 5e-5,4.8e-5 3e-4,-4.8e-5 3e-4,0 0.0626,0.05328 0.1271,0.105258 0.19359,0.155766 7e-5,4.7e-5 3.1e-4,-4.7e-5 3.1e-4,0 0.0665,0.0505 0.13471,0.09971 0.20491,0.147427 6e-5,4.6e-5 3e-4,-4.6e-5 3e-4,0 0.0702,0.04771 0.1422,0.09418 0.21593,0.139088 7e-5,4.2e-5 1.5e-4,-4.5e-5 3e-4,0 0.0737,0.0449 0.149,0.08866 0.22606,0.130747 0.0772,0.04218 0.1561,0.08277 0.23648,0.122111 0.0803,0.0393 0.16185,0.07702 0.24511,0.113474 9e-5,3.7e-5 1.5e-4,-3.6e-5 3.1e-4,0 0.0832,0.03641 0.16778,0.07158 0.25375,0.105134 9e-5,3.4e-5 1.5e-4,-3.3e-5 3.1e-4,0 0.086,0.03355 0.17323,0.06581 0.26179,0.0965 0.0887,0.03075 0.17868,0.06 0.26984,0.08786 0.0911,0.02783 0.18309,0.05429 0.27638,0.07922 1e-4,2.5e-5 1.6e-4,-2.4e-5 3.1e-4,0 0.0932,0.0249 0.1874,0.04829 0.28264,0.07029 1e-4,2.1e-5 1.5e-4,-2.3e-5 3.1e-4,0 0.0952,0.02199 0.1915,0.04258 0.2886,0.06165 0.0973,0.01912 0.19529,0.03685 0.29425,0.05302 0.19773,0.03231 0.39862,0.05875 0.60192,0.07922 0.50814,0.05117 1.03154,0.06501 1.55826,0.0411 0.10536,-0.0048 0.21104,-0.01093 0.31659,-0.01876 0.21111,-0.01566 0.42246,-0.03761 0.63319,-0.06552 0.21073,-0.02791 0.42074,-0.06189 0.62962,-0.102156 0.20888,-0.04028 0.41663,-0.08665 0.62217,-0.139387 0.20554,-0.05274 0.40895,-0.111906 0.60966,-0.17721 0.20072,-0.0653 0.39858,-0.136759 0.59299,-0.214736 0.0972,-0.03899 0.19354,-0.07964 0.28889,-0.121814 0.20434,-0.09039 0.40373,-0.189447 0.60103,-0.292172 0.24236,-0.126187 0.48069,-0.25908 0.71182,-0.402669 0.22103,-0.13732 0.43526,-0.284286 0.6454,-0.436324 0.45402,-0.328517 0.8834,-0.688071 1.28216,-1.076661 0.11668,-0.113698 0.2309,-0.229681 0.34251,-0.347868 0.22327,-0.236432 0.43615,-0.481534 0.63825,-0.734156 0.10103,-0.126276 0.19934,-0.254326 0.29486,-0.384203 0.66854,-0.909084 1.20018,-1.902798 1.56897,-2.930368 4e-5,-8.9e-5 -3e-5,-1.53e-4 0,-3.05e-4 0.2634,-0.733949 0.44374,-1.485198 0.53163,-2.235228 2e-5,-9.9e-5 -1e-5,-1.52e-4 0,-3.05e-4 0.0176,-0.149928 0.0316,-0.299746 0.0417,-0.449428 1e-5,-10e-5 0,-1.53e-4 0,-3.05e-4 0.0303,-0.449243 0.0265,-0.896734 -0.0131,-1.338458 -10e-6,-9.7e-5 1e-5,-1.52e-4 0,-3.05e-4 -0.0397,-0.441714 -0.11535,-0.877696 -0.22903,-1.303907 -2e-5,-9.2e-5 2e-5,-1.53e-4 0,-3.05e-4 -0.0379,-0.142009 -0.0802,-0.282927 -0.12658,-0.422624 -0.0341,-0.102792 -0.0702,-0.203963 -0.10781,-0.303789 -0.008,-0.02059 -0.0162,-0.04059 -0.0241,-0.06106 -0.0296,-0.07663 -0.0598,-0.152691 -0.0914,-0.227542 -0.0135,-0.03199 -0.0278,-0.06335 -0.0417,-0.09501 -0.0269,-0.06126 -0.054,-0.12223 -0.0822,-0.182273 -0.0177,-0.03767 -0.036,-0.07479 -0.0542,-0.111985 -0.0272,-0.05557 -0.055,-0.110801 -0.0834,-0.165296 -0.0169,-0.03246 -0.0339,-0.06472 -0.0512,-0.0968 -0.0326,-0.06038 -0.0658,-0.119975 -0.0998,-0.178997 -0.0161,-0.02807 -0.0324,-0.05623 -0.0488,-0.08399 -0.0348,-0.05858 -0.0705,-0.116131 -0.10663,-0.173338 -0.0175,-0.02771 -0.0346,-0.05571 -0.0524,-0.0831 -0.041,-0.06303 -0.083,-0.124825 -0.12568,-0.186144 -0.0127,-0.01827 -0.025,-0.03698 -0.0378,-0.0551 -0.11469,-0.161681 -0.23517,-0.317465 -0.36097,-0.467001 -0.0135,-0.01604 -0.0275,-0.03146 -0.0411,-0.04736 -0.0488,-0.05702 -0.0982,-0.11336 -0.14862,-0.168574 -0.0215,-0.02354 -0.0435,-0.04648 -0.0652,-0.06969 -0.0429,-0.04571 -0.0859,-0.09108 -0.12986,-0.135513 -0.0259,-0.02625 -0.0523,-0.05193 -0.0786,-0.07773 -0.042,-0.0412 -0.0842,-0.08205 -0.12717,-0.122113 -0.0267,-0.02495 -0.0536,-0.04965 -0.0807,-0.07416 -0.0456,-0.04126 -0.0919,-0.08181 -0.13849,-0.121813 -0.0248,-0.02133 -0.0497,-0.04277 -0.0747,-0.06374 -0.0526,-0.04396 -0.10588,-0.08688 -0.15964,-0.12926 -0.0194,-0.01532 -0.0385,-0.03105 -0.0581,-0.04616 -0.0643,-0.04963 -0.12951,-0.09794 -0.19538,-0.145343 -0.0112,-0.008 -0.0221,-0.01644 -0.0334,-0.02442 -0.0788,-0.05601 -0.15856,-0.110677 -0.23946,-0.163511 -0.0806,-0.05267 -0.16245,-0.103287 -0.24511,-0.152787 -0.0171,-0.01022 -0.0344,-0.02 -0.0515,-0.03008 -0.0618,-0.03637 -0.12412,-0.07202 -0.18704,-0.106624 -0.0284,-0.01565 -0.0571,-0.03088 -0.0858,-0.04616 -0.059,-0.03148 -0.11851,-0.06239 -0.1784,-0.09233 -0.0235,-0.01177 -0.0472,-0.02331 -0.0709,-0.03485 -0.0607,-0.02955 -0.12167,-0.05839 -0.18317,-0.08637 -0.0298,-0.01354 -0.0597,-0.02674 -0.0897,-0.03991 -0.055,-0.02418 -0.1103,-0.04764 -0.16589,-0.07059 -0.0344,-0.0142 -0.0687,-0.02828 -0.10335,-0.04199 -0.0605,-0.02398 -0.12136,-0.04716 -0.18257,-0.06969 -0.0253,-0.0093 -0.0505,-0.01893 -0.076,-0.028 -0.0806,-0.02877 -0.16186,-0.05623 -0.24362,-0.0825 -0.007,-0.0024 -0.0146,-0.0051 -0.022,-0.0074 -0.001,-4.57e-4 -0.003,-7.62e-4 -0.005,-0.0012 -0.0942,-0.02992 -0.1891,-0.05857 -0.28473,-0.08518 -9e-5,-2.5e-5 -1.5e-4,2.6e-5 -3.1e-4,0 -0.0946,-0.02633 -0.19001,-0.0508 -0.28591,-0.07386 -0.0147,-0.0035 -0.0296,-0.0067 -0.0444,-0.01013 -0.0802,-0.01884 -0.1608,-0.03675 -0.24184,-0.05331 -0.0253,-0.0052 -0.0508,-0.0097 -0.0763,-0.01459 -0.0666,-0.01298 -0.13337,-0.02549 -0.20044,-0.03693 -0.0386,-0.0066 -0.0774,-0.01269 -0.11616,-0.01876 -0.0567,-0.0089 -0.1136,-0.01752 -0.17066,-0.02532 -0.0391,-0.0054 -0.0784,-0.01035 -0.11764,-0.01519 -0.0627,-0.0077 -0.12546,-0.01475 -0.18853,-0.02115 -0.0341,-0.0035 -0.0682,-0.0068 -0.10245,-0.0098 -0.0699,-0.0063 -0.14001,-0.01171 -0.21027,-0.01638 -0.027,-0.0018 -0.0539,-0.0038 -0.081,-0.0054 -0.0751,-0.0043 -0.15057,-0.0073 -0.22606,-0.0098 -0.0263,-9.15e-4 -0.0526,-0.0023 -0.0789,-0.003 -0.0998,-0.0024 -0.19987,-0.0034 -0.30021,-0.0027 z m -1.50733,1.985048 c 0.38798,-0.01237 0.33307,0.276002 -0.24154,0.850609 -2.38632,2.386323 0.94343,5.805658 3.87539,3.979628 0.6133,-0.381963 1.11508,-0.937542 1.11508,-1.234513 0,-0.296965 0.1544,-0.44454 0.34311,-0.327913 0.55936,0.345701 0.38975,1.97823 -0.32792,3.155231 -1.35199,2.217341 -4.01671,3.046244 -6.18418,1.923696 -1.48959,-0.771483 -2.75187,-2.61424 -2.75018,-4.014475 0.002,-1.47626 1.06286,-3.070197 2.49732,-3.750895 0.80133,-0.380258 1.37117,-0.57175 1.67292,-0.581368 z m -81.699734,0.156958 c -0.185493,-3.05e-4 -0.371471,0.0032 -0.557244,0.01072 -0.01573,6.1e-4 -0.03133,0.002 -0.04706,0.0027 -0.34657,0.01527 -0.691648,0.04461 -1.030497,0.08727 -0.205278,0.02584 -0.40858,0.05553 -0.607875,0.09144 -0.179771,0.03239 -0.356781,0.06902 -0.529843,0.109602 -0.08658,0.0203 -0.172458,0.04168 -0.257029,0.06403 -0.08448,0.02233 -0.167923,0.04561 -0.250179,0.06999 -0.08235,0.0244 -0.163723,0.04979 -0.243626,0.07625 -0.07981,0.02643 -0.15843,0.05403 -0.235585,0.0825 -0.154484,0.05701 -0.303625,0.118244 -0.446152,0.183464 -0.337558,0.154466 -0.683204,0.346847 -1.030796,0.563796 -0.175203,0.109352 -0.350595,0.225566 -0.525971,0.348462 -0.05981,0.04191 -0.119889,0.08113 -0.179593,0.124495 -1.746316,1.268418 -3.434708,3.145523 -4.27478,4.856147 -0.07834,0.159518 -0.152125,0.323723 -0.221289,0.49202 -0.03458,0.08415 -0.06779,0.169154 -0.100072,0.25524 -0.355171,0.947017 -0.571131,2.00593 -0.645401,3.063499 -7e-6,9.8e-5 7e-6,1.53e-4 0,3.05e-4 -0.02699,0.384437 -0.03529,0.768696 -0.02472,1.147249 2e-6,9.9e-5 -3e-6,1.53e-4 0,3.05e-4 0.01058,0.378549 0.04008,0.751557 0.08846,1.113295 0.02419,0.180919 0.05298,0.359053 0.08667,0.533715 0.01684,0.08733 0.03498,0.173899 0.0542,0.259413 0.03845,0.171023 0.08156,0.338233 0.129557,0.500952 0.024,0.08136 0.04926,0.161323 0.07565,0.24035 3e-5,9e-5 -2.9e-5,1.52e-4 0,3.05e-4 0.07914,0.236984 0.169127,0.463139 0.269836,0.676078 3.8e-5,8e-5 -3.8e-5,1.52e-4 0,3.05e-4 0.03355,0.07092 0.06829,0.140272 0.104241,0.208185 4.1e-5,7.8e-5 -4.1e-5,1.52e-4 0,3.05e-4 0.153417,0.289816 0.334894,0.578315 0.538778,0.860734 4.8e-5,6.7e-5 -4.8e-5,3.05e-4 0,3.05e-4 0.135919,0.188262 0.282152,0.373816 0.436621,0.555157 0.07726,0.0907 0.156648,0.180221 0.237968,0.268645 5e-5,5.5e-5 -5e-5,3.05e-4 0,3.05e-4 0.162595,0.176794 0.333095,0.348549 0.50959,0.514059 0.176551,0.165543 0.359165,0.324888 0.546522,0.476232 0.281029,0.227036 0.572459,0.436464 0.869073,0.623362 0.197745,0.124591 0.397851,0.239088 0.598642,0.342208 0.100395,0.05156 0.200831,0.100291 0.301406,0.145939 0.05146,0.02335 0.105473,0.04569 0.161722,0.06701 0.1125,0.04265 0.234271,0.0812 0.364249,0.115856 1.884671,0.502492 5.487877,0.173132 7.365382,-0.743686 0.356599,-0.174133 0.699669,-0.362931 1.029008,-0.564987 0.219561,-0.134704 0.433039,-0.275351 0.640338,-0.421432 0.310952,-0.21912 0.608072,-0.450669 0.891113,-0.693054 0.566084,-0.484772 1.076066,-1.01327 1.528176,-1.57434 0.150701,-0.187023 0.294943,-0.377694 0.43275,-0.57154 0.0689,-0.09692 0.136271,-0.194593 0.20193,-0.293065 0.106609,-0.159891 0.207572,-0.322146 0.305574,-0.485764 0.02271,-0.03791 0.04656,-0.07538 0.0688,-0.113474 4.5e-5,-7.5e-5 -4.2e-5,-1.53e-4 0,-3.05e-4 0.236454,-0.404971 0.446704,-0.82024 0.630214,-1.242555 3.6e-5,-8.4e-5 -3.7e-5,-1.53e-4 0,-3.05e-4 0.04585,-0.105515 0.09003,-0.211447 0.132535,-0.317787 3.3e-5,-8.6e-5 -3.5e-5,-1.53e-4 0,-3.05e-4 0.08504,-0.212764 0.163409,-0.42698 0.234988,-0.642424 3.1e-5,-9e-5 -2.9e-5,-1.52e-4 0,-3.05e-4 0.143206,-0.431067 0.259543,-0.866487 0.348167,-1.303312 0.110773,-0.546033 0.178361,-1.094091 0.202227,-1.63748 0.01909,-0.43471 0.01017,-0.866427 -0.0274,-1.291995 -0.01878,-0.212783 -0.04461,-0.423934 -0.07773,-0.63319 -0.01656,-0.104628 -0.03493,-0.208835 -0.0551,-0.312426 -0.0605,-0.310771 -0.137305,-0.616556 -0.230522,-0.91613 -0.06215,-0.199716 -0.131652,-0.396599 -0.208483,-0.590302 -3.3e-5,-8.5e-5 3.4e-5,-1.53e-4 0,-3.05e-4 -0.0768,-0.193615 -0.160971,-0.384162 -0.252561,-0.570944 -0.09163,-0.186864 -0.19069,-0.370006 -0.297237,-0.549201 -0.106544,-0.179197 -0.220631,-0.354377 -0.342208,-0.525078 -0.121577,-0.1707 -0.250756,-0.336896 -0.387479,-0.498273 -0.136724,-0.161377 -0.281063,-0.317859 -0.433048,-0.469084 -0.151985,-0.151226 -0.311551,-0.29727 -0.478913,-0.437515 -0.08374,-0.07017 -0.169416,-0.138832 -0.257029,-0.2061 -0.08755,-0.06722 -0.176919,-0.132946 -0.268346,-0.197164 -0.0915,-0.06427 -0.184865,-0.126778 -0.280261,-0.187932 -0.09532,-0.06111 -0.192345,-0.120798 -0.291576,-0.1787 -0.09923,-0.0579 -0.200335,-0.113985 -0.303491,-0.168573 -7.8e-5,-4.1e-5 -1.53e-4,4.1e-5 -3.05e-4,0 -0.06202,-0.03282 -0.125829,-0.06482 -0.191506,-0.0956 -8.1e-5,-3.9e-5 -1.53e-4,3.8e-5 -3.05e-4,0 -0.06568,-0.03078 -0.133101,-0.06061 -0.202229,-0.08935 -8.4e-5,-3.5e-5 -1.53e-4,3.5e-5 -3.05e-4,0 -0.06913,-0.02874 -0.139995,-0.05669 -0.212355,-0.08339 -8.7e-5,-3.2e-5 -1.52e-4,3.2e-5 -3.05e-4,0 -0.07237,-0.0267 -0.146212,-0.05247 -0.221587,-0.07714 -8.9e-5,-2.9e-5 -1.53e-4,2.9e-5 -3.05e-4,0 -0.07547,-0.0247 -0.152256,-0.04823 -0.230522,-0.07089 -0.07835,-0.02268 -0.157922,-0.04429 -0.238861,-0.06493 -0.161692,-0.04122 -0.328167,-0.07833 -0.498869,-0.111389 -0.17079,-0.03308 -0.345528,-0.06207 -0.523588,-0.08697 -0.533887,-0.07465 -1.096503,-0.112423 -1.664284,-0.113474 z m -1.154695,2.28288 c 0.266143,0.009 0.118124,0.276501 -0.417858,0.812486 -1.07332,1.073317 -1.07332,2.388977 0,3.462296 1.473093,1.473095 4.133866,1.060858 5.141768,-0.796403 l 0.507506,-0.934894 0.01369,1.475161 c 0.01931,2.069659 -0.788063,3.430062 -2.496425,4.205684 -1.796891,0.815815 -2.446318,0.815815 -4.243211,0 -3.437175,-1.560527 -3.370035,-6.326971 0.109603,-7.780857 0.720448,-0.301021 1.177918,-0.450473 1.384918,-0.443473 z" />
      <path
         style="fill:#23378e;fill-opacity:1;stroke-width:0.343103"
         d="M 18.264236,49.444583 C 15.115814,42.320917 12.419157,36.366111 12.271665,36.211675 12.124173,36.057233 11.441535,36.165685 10.754693,36.45266 9.5593689,36.952098 9.4850069,36.942082 9.0183359,36.218804 7.7412129,34.239434 2.3063319,24.904315 2.3063319,24.69006 c 0,-1.091236 6.767179,-5.398096 11.2900531,-7.185372 10.68363,-4.221781 20.28046,-3.543245 25.606692,1.810491 2.55417,2.567363 3.387552,4.525558 3.404206,7.99887 0.0074,1.55659 0.09077,2.825442 0.185121,2.819679 0.09435,-0.0058 0.478148,-0.242195 0.852874,-0.52542 1.069525,-0.80834 4.883337,-1.864949 6.731518,-1.864949 1.577806,0 1.679368,-0.05372 1.679368,-0.887915 0,-0.840021 -0.07123,-0.875875 -1.320792,-0.664768 l -1.320791,0.223147 -0.220728,-2.337374 c -0.1214,-1.285555 -0.221826,-3.042371 -0.223168,-3.904028 l -0.0024,-1.566653 1.972838,-0.910853 c 1.689511,-0.780053 14.617579,-5.048057 15.290888,-5.048057 0.12895,0 0.234455,0.380765 0.234455,0.846148 v 0.846147 l 1.54821,-1.044875 c 0.851519,-0.57468 1.690215,-0.994042 1.863785,-0.931924 0.173565,0.06213 1.976039,1.579719 4.005498,3.372424 5.445276,4.810039 5.129661,4.60473 6.320529,4.111463 0.558461,-0.231325 1.015378,-0.503081 1.015378,-0.6039 0,-0.100825 -0.395012,-0.701204 -0.8778,-1.334175 l -0.8778,-1.150858 5.573424,-6.369546 c 5.323729,-6.0841938 7.809462,-8.2584418 8.530227,-7.4613408 0.571637,0.632182 5.882412,8.7577368 5.777593,8.8398018 -0.06203,0.04858 -1.926923,1.048915 -4.144217,2.223011 -2.217301,1.174097 -4.031452,2.27875 -4.031452,2.454787 0,0.176037 0.467043,0.320065 1.037874,0.320065 1.46256,0 4.65169,1.181761 6.033614,2.235806 1.272755,0.970781 1.846581,0.88312 1.853851,-0.283219 0.0167,-2.674401 1.32029,-3.324996 6.66243,-3.324996 3.52506,0 4.04223,-0.08187 5.39222,-0.853623 1.4028,-0.801942 1.79747,-0.85387 6.51874,-0.857755 l 5.02554,-0.004 0.36527,2.144393 c 0.20089,1.17941 0.70169,4.305927 1.11287,6.947816 0.41119,2.64189 0.77004,4.834759 0.79747,4.873045 0.0274,0.03827 0.82057,-0.311811 1.76255,-0.777995 0.94198,-0.466178 2.69309,-1.047584 3.89134,-1.292004 l 2.17865,-0.44441 -0.0627,-3.650242 -0.0627,-3.650242 1.45273,-0.741133 1.45273,-0.741121 7.48673,1.649738 c 6.03238,1.329259 7.48674,1.758828 7.48674,2.211335 0,0.899603 0.36345,1.026167 1.40302,0.488581 0.89828,-0.464519 1.42801,-0.394724 6.90432,0.909643 3.26227,0.777021 6.06456,1.536452 6.22731,1.687632 0.16276,0.15118 -2.43761,8.475497 -5.7786,18.49849 l -6.07451,18.223618 -1.34007,0.683649 -1.34006,0.683654 -4.63259,-1.447967 -4.63259,-1.447962 v -1.811586 c 0,-1.600167 -0.0901,-1.831192 -0.77198,-1.979588 -0.70885,-0.154263 -7.9745,-1.217478 -8.31985,-1.217478 -0.0827,0 -0.0909,-0.192993 -0.0183,-0.428877 0.0727,-0.235885 0.22052,-1.290679 0.32855,-2.343997 l 0.19642,-1.915115 -2.08737,0.542706 -2.08738,0.54271 0.21089,1.591839 c 0.206,1.554976 0.18141,1.609233 -1.06206,2.342896 l -1.27295,0.751051 -6.19631,-1.081161 c -3.40798,-0.594673 -6.46241,-1.156287 -6.78762,-1.248069 -0.41297,-0.116542 -0.65912,-0.67815 -0.81619,-1.86216 -0.1237,-0.932408 -0.28987,-1.695292 -0.36928,-1.695292 -0.0794,0 -0.6004,0.235815 -1.15774,0.524026 -1.00596,0.520204 -1.01756,0.515196 -1.59047,-0.686202 -0.65173,-1.36671 -0.78418,-1.4099 -2.15287,-0.702126 -0.89048,0.460489 -1.53199,0.421004 -6.84501,-0.421282 -6.526503,-1.034662 -6.110639,-0.743011 -5.517677,-3.869655 0.18961,-0.999828 0.282158,-1.88046 0.205661,-1.956957 -0.07649,-0.0765 -0.925787,0.259566 -1.887311,0.746809 -0.961525,0.48724 -2.327843,1.006124 -3.036263,1.153068 l -1.28804,0.267174 -0.09514,4.654854 -0.09515,4.654855 -1.308684,0.590137 -1.308689,0.590132 -9.54419,-4.659477 c -5.249308,-2.562712 -9.596858,-4.659477 -9.661218,-4.659477 -0.06437,0 -0.117026,1.463621 -0.117026,3.252499 v 3.252499 l -1.440573,0.73492 c -0.946281,0.482759 -3.24194,0.994866 -6.690492,1.492495 l -5.249925,0.75757 -0.04057,-1.056644 c -0.0223,-0.581153 -0.138126,-1.482819 -0.257324,-2.003709 l -0.216739,-0.947065 -1.701343,1.212366 c -4.754837,3.388267 -11.106772,2.91606 -14.850407,-1.103973 -0.803618,-0.862954 -1.461122,-1.413917 -1.461122,-1.224359 0,0.189546 0.442376,2.030773 0.983057,4.091603 l 0.98306,3.746969 -1.243347,0.893736 c -0.961284,0.690985 -11.46345,4.399305 -12.459067,4.399305 -0.112982,0 -2.781402,-5.828449 -5.929824,-12.952107 z m 13.377342,6.784009 c 1.320944,-0.428376 2.504074,-0.875558 2.629179,-0.993737 0.125106,-0.118173 -0.604412,-3.370977 -1.621149,-7.228454 -1.016737,-3.857471 -1.813878,-7.028477 -1.771423,-7.046661 0.04245,-0.01821 0.969673,-0.705785 2.060488,-1.527986 3.805932,-2.868725 6.665892,-7.467139 7.010961,-11.272635 0.240604,-2.653411 -0.752482,-4.980147 -3.038117,-7.118091 -2.194321,-2.052524 -4.105855,-2.867895 -7.823571,-3.337163 -5.156125,-0.65082 -10.985678,0.605624 -17.460481,3.763263 -2.4474261,1.193565 -3.1664841,1.697805 -3.0509771,2.139506 0.253125,0.967951 4.0414391,7.224644 4.3743901,7.224644 0.171295,0 0.858617,-0.260921 1.527381,-0.579838 0.740579,-0.353153 1.324206,-0.453753 1.492889,-0.257325 0.152326,0.17738 0.756896,1.403284 1.343489,2.724226 3.163073,7.122897 10.499652,23.417788 10.786797,23.957998 0.183315,0.344875 0.514453,0.560461 0.735863,0.479082 0.221411,-0.08138 1.483338,-0.498448 2.804281,-0.926829 z M 27.96659,32.289463 c -1.539696,-5.050523 -1.541356,-5.0616 -0.820976,-5.477475 0.397011,-0.229199 1.604244,-0.422192 2.682739,-0.428878 1.709374,-0.0106 2.115101,0.123233 3.163065,1.04336 1.339348,1.175958 1.781508,2.65099 1.406322,4.691446 -0.175401,0.953906 -0.758733,1.796808 -2.255734,3.259472 -1.110535,1.085058 -2.15718,1.972834 -2.325879,1.972834 -0.168698,0 -1.000989,-2.277337 -1.849537,-5.060759 z m 3.8503,0.514655 c 1.319678,-2.164427 0.45106,-4.374552 -1.719272,-4.374552 -0.566119,0 -1.029307,0.09052 -1.029307,0.201166 0,0.715554 1.533484,5.288471 1.773439,5.288471 0.162394,0 0.601207,-0.501791 0.97514,-1.115085 z m 125.96801,8.317378 c 2.77606,-8.395859 5.05771,-15.509621 5.07035,-15.808355 0.0176,-0.416653 -0.82222,-0.723508 -3.60593,-1.317495 -1.99589,-0.425892 -3.67582,-0.721854 -3.73316,-0.657708 -0.0574,0.06415 -0.76949,2.934371 -1.58253,6.378261 -0.81304,3.443889 -1.57301,6.261614 -1.68882,6.261614 -0.1158,0 -0.88346,-3.203717 -1.70589,-7.119369 -0.82244,-3.915659 -1.52769,-7.163731 -1.56723,-7.217947 -0.20033,-0.274667 -9.17655,-1.825366 -9.60793,-1.65983 -0.29114,0.111718 -0.50271,0.638141 -0.50271,1.250824 0,0.876786 0.1839,1.12203 1.07401,1.432332 l 1.07401,0.374401 -0.21831,2.348914 c -0.21123,2.272709 -0.18071,2.401901 0.94045,3.982306 1.63022,2.297953 2.04395,3.836054 1.85892,6.910746 -0.17939,2.980933 -1.39174,5.78474 -3.47399,8.034265 -1.06521,1.150789 -1.21903,1.549875 -1.3164,3.415464 l -0.11024,2.112419 1.37241,0.227815 c 0.75482,0.125297 2.01763,0.325367 2.80623,0.4446 l 1.43383,0.216779 0.35739,-1.801443 c 0.19657,-0.990797 0.70932,-3.808597 1.13944,-6.261776 l 0.78205,-4.460336 0.21472,2.401718 c 0.11808,1.320942 0.23599,4.794855 0.26201,7.719802 0.026,2.924948 0.13812,5.656776 0.24912,6.07072 0.15027,0.560381 0.74066,0.92457 2.31126,1.425715 1.16018,0.370194 2.33671,0.647806 2.61449,0.616925 0.3487,-0.03879 2.06764,-4.782 5.55245,-15.321361 z m -93.119724,8.023903 c 0.760636,-0.206647 0.771978,-0.292372 0.771978,-5.831972 v -5.622248 l 10.634029,5.319157 c 5.848713,2.925541 10.795395,5.319161 10.99263,5.319161 0.229406,0 0.322888,-1.069289 0.259474,-2.96796 l -0.09914,-2.967967 -2.093511,-0.57219 c -3.328357,-0.9097 -6.495886,-3.149501 -7.898881,-5.585413 -0.165369,-0.287121 -2.148635,-1.242715 -4.407253,-2.123547 -2.258618,-0.880831 -4.15711,-1.652049 -4.218882,-1.713815 -0.06177,-0.06177 1.90199,-2.232176 4.363906,-4.823123 2.461911,-2.590952 4.458156,-4.809682 4.436099,-4.930517 -0.02207,-0.12083 -1.497382,-1.593124 -3.278491,-3.271766 l -3.238373,-3.052076 -1.61072,2.242342 c -0.885897,1.233292 -2.381655,3.301504 -3.323901,4.596039 l -1.713185,2.353691 -0.276671,-4.448756 c -0.152171,-2.446816 -0.313564,-4.485646 -0.358657,-4.530734 -0.04507,-0.04507 -2.08318,0.504972 -4.529085,1.222354 l -4.447107,1.304343 -0.109326,1.301174 -0.109326,1.301179 1.335057,-0.213488 1.33505,-0.213488 0.349043,4.55456 c 0.337522,4.404337 0.389191,4.612931 1.566498,6.324436 2.206372,3.207504 2.531762,7.453624 0.859069,11.210266 -0.623093,1.399387 -0.752671,2.212845 -0.65425,4.107285 l 0.12272,2.362296 2.284617,-0.219746 c 1.256536,-0.120859 2.632,-0.314123 3.056589,-0.429477 z m 61.929964,0.122933 c -0.0472,-0.138944 -0.0907,-0.522821 -0.0966,-0.853058 -0.006,-0.335505 -0.67788,-1.00505 -1.52262,-1.517474 -5.05674,-3.067425 -6.04664,-10.710654 -2.06348,-15.932835 l 0.81454,-1.067928 -1.00663,-6.48048 c -0.55365,-3.564264 -1.08074,-6.673571 -1.1713,-6.909576 -0.18631,-0.485526 -4.83051,-0.621018 -5.12197,-0.149428 -0.0951,0.153819 -0.49636,2.199566 -0.89176,4.546105 -1.11776,6.633504 -0.99798,6.71924 -2.54771,-1.823631 l -0.23341,-1.286633 h -3.56391 c -3.09569,0 -3.58796,0.07888 -3.74703,0.600431 -0.10072,0.330231 -0.66412,3.486256 -1.25201,7.013386 l -1.06887,6.412968 1.05786,0.963732 1.05786,0.963738 -1.49702,1.588825 c -1.36819,1.4521 -1.53589,1.828207 -1.94876,4.370569 -0.24846,1.529957 -0.36964,2.863846 -0.26929,2.964192 0.23829,0.238288 5.26096,1.197934 6.26987,1.197934 0.73077,0 0.81642,-0.243492 1.35774,-3.859905 1.06218,-7.096068 0.70444,-6.888753 3.11108,-1.802935 l 2.10988,4.458682 1.35124,-3.418256 1.35123,-3.418254 0.43152,2.562147 c 0.23734,1.40918 0.70053,4.25902 1.02931,6.332973 l 0.59779,3.77083 3.25947,0.567102 c 3.38372,0.588725 4.34881,0.636204 4.203,0.206779 z M 51.884617,48.338805 c 7.607443,-3.71485 9.056274,-14.101722 2.454302,-17.595304 -1.98692,-1.051428 -5.90958,-1.058684 -8.190024,-0.01516 -2.262907,1.035499 -4.891221,3.612037 -6.011358,5.892954 -1.253408,2.552286 -1.334432,6.315654 -0.182818,8.491354 0.81836,1.546095 2.429342,3.056796 4.038543,3.787146 1.64661,0.747329 5.819626,0.450675 7.891355,-0.560986 z m -4.18025,-7.881235 c -3.437175,-1.560527 -3.37003,-6.32692 0.109607,-7.780806 1.64674,-0.688046 1.919983,-0.583775 0.967127,0.369088 -1.07332,1.073317 -1.07332,2.388894 0,3.462211 1.473092,1.473096 4.134052,1.061059 5.141955,-0.796202 l 0.507351,-0.934904 0.01372,1.475223 c 0.01931,2.069659 -0.788144,3.429769 -2.496508,4.20539 -1.796891,0.815815 -2.446376,0.815815 -4.243268,0 z m 87.120733,4.859289 c 4.85642,-2.148225 7.77552,-7.882566 6.28977,-12.355752 -2.00701,-6.042554 -10.12036,-6.966726 -15.18626,-1.729832 -4.15839,4.298751 -4.24682,10.004665 -0.20833,13.442493 2.00499,1.706773 6.0537,1.992747 9.10482,0.643091 z m -4.19166,-7.176688 c -1.4896,-0.771483 -2.75207,-2.614145 -2.75038,-4.014379 0.002,-1.47626 1.06309,-3.070151 2.49755,-3.750849 1.83162,-0.86916 2.45277,-0.752331 1.43125,0.269191 -2.38632,2.386324 0.94354,5.805661 3.87549,3.979632 0.6133,-0.381963 1.11509,-0.937457 1.11509,-1.234427 0,-0.296965 0.15439,-0.44452 0.3431,-0.327891 0.55936,0.3457 0.38966,1.97805 -0.32801,3.155051 -1.35199,2.21734 -4.01663,3.046221 -6.18409,1.923672 z m -37.381488,0.716166 c 1.024957,-0.303876 2.481143,-0.862654 3.235969,-1.241736 1.923459,-0.965974 4.670899,-3.094184 4.556199,-3.529303 -0.0527,-0.200042 -1.059511,-1.245626 -2.23729,-2.32352 l -2.141407,-1.959814 -1.560769,1.191363 c -1.524505,1.163682 -3.926062,2.075861 -4.732311,1.797466 -0.221856,-0.07661 0.983369,-1.591009 2.678265,-3.365341 1.694894,-1.774331 3.694649,-3.881279 4.443902,-4.682121 l 1.362289,-1.456064 -1.143867,-1.180171 c -2.340943,-2.415244 -6.524865,-3.42513 -10.243416,-2.472487 -4.189043,1.073185 -6.691021,2.892978 -8.190127,5.957037 -1.152028,2.354659 -1.303265,5.592404 -0.373716,8.000513 0.777477,2.014146 3.105872,4.28523 5.252732,5.123441 2.157575,0.842396 6.50019,0.909603 9.093547,0.140737 z m -7.838261,-6.216615 c -0.66833,-0.238356 -1.792112,-2.67598 -1.792112,-3.887308 0,-2.331917 1.803696,-4.543488 4.076213,-4.997989 1.363833,-0.272771 3.105193,0.07923 4.069928,0.822702 l 0.769438,0.592967 -3.2896,3.774126 c -3.854639,4.422394 -3.298586,3.886409 -3.833867,3.695502 z m 2.496667,-4.574818 c 2.09575,-2.494139 2.183325,-2.723263 1.040858,-2.723263 -1.167324,0 -2.810403,0.854839 -3.260853,1.696508 -0.605849,1.132041 -0.406343,3.156106 0.304342,3.087648 0.110075,-0.0106 0.972121,-0.93801 1.915653,-2.060893 z M 75.730226,30.65973 c 0,-1.037884 -0.12306,-1.887063 -0.273468,-1.887063 -0.150413,0 -0.856135,0.596708 -1.56829,1.326014 l -1.29481,1.326008 1.310954,0.543373 c 0.72103,0.298855 1.426758,0.551326 1.568289,0.561049 0.141526,0.0097 0.257325,-0.831497 0.257325,-1.869381 z M 92.11337,13.195211 c 2.122942,-1.058327 3.859897,-2.084471 3.859897,-2.280323 0,-0.462783 -2.745193,-4.1007668 -3.094403,-4.1007668 -0.146932,0 -1.761889,1.783449 -3.588806,3.9632238 -2.659623,3.173327 -3.242503,4.058596 -2.924531,4.441735 0.480309,0.578732 0.639828,0.522562 5.747843,-2.023869 z"
         id="path1118" />
    </g>
  </g>
</svg>
